<?xml version="1.0" encoding="UTF-8"?>
<svg version="1.1" xmlns="http://www.w3.org/2000/svg" width="500" height="500">
<path d="M0 0 C5.52565152 5.65505788 7.22826135 12.39639086 7.22659302 20.12937927 C7.21627045 20.85883255 7.20594788 21.58828583 7.1953125 22.33984375 C7.1924826 23.10680069 7.18965271 23.87375763 7.18673706 24.66395569 C7.17563475 27.08863621 7.15054967 29.51293309 7.125 31.9375 C7.1149573 33.5917915 7.10583372 35.24608885 7.09765625 36.90039062 C7.07572817 40.93373923 7.04126843 44.9668048 7 49 C8.07894531 48.97905273 9.15789062 48.95810547 10.26953125 48.93652344 C14.30243468 48.86369576 18.3352809 48.81804616 22.36865234 48.78027344 C24.10866089 48.76025478 25.84860299 48.73303114 27.58837891 48.69824219 C30.10075346 48.64929048 32.61223275 48.62693413 35.125 48.609375 C35.89303955 48.58872986 36.6610791 48.56808472 37.45239258 48.54681396 C44.4268916 48.54396708 49.44160908 50.84862582 54.75 55.3125 C59.79644156 61.34019409 62.33718919 66.84582457 62.21875 74.78125 C61.61117546 80.94379173 59.46859636 86.65217652 55 91 C48.4685172 95.65401204 43.66792253 97.15002447 35.61328125 97.09765625 C34.79627243 97.0962413 33.97926361 97.09482635 33.13749695 97.09336853 C30.52912732 97.08777294 27.92084366 97.07522129 25.3125 97.0625 C23.54362103 97.05748443 21.77474072 97.05292162 20.00585938 97.04882812 C15.67053981 97.03780496 11.33528448 97.02054338 7 97 C7.01571045 97.9472998 7.0314209 98.89459961 7.04760742 99.87060547 C7.09914501 103.43039573 7.13654675 106.98978183 7.16479492 110.54980469 C7.17975744 112.08209543 7.20013497 113.61434429 7.22631836 115.14648438 C7.59009721 137.00174698 7.59009721 137.00174698 0.8125 144.375 C-5.02356611 150.35636237 -9.72585319 152.21670224 -18.125 152.4375 C-25.38301774 152.42941757 -30.79771004 150.06889791 -36 145 C-40.85619245 137.70887162 -42.16035558 131.79529777 -42.09765625 123.07421875 C-42.0962413 122.32662796 -42.09482635 121.57903717 -42.09336853 120.80879211 C-42.08779764 118.43498635 -42.0752506 116.06127697 -42.0625 113.6875 C-42.05748123 112.07226699 -42.05291899 110.4570325 -42.04882812 108.84179688 C-42.03783775 104.89449445 -42.02059332 100.94726353 -42 97 C-43.04865234 97.01571045 -44.09730469 97.0314209 -45.17773438 97.04760742 C-49.09887903 97.10224455 -53.01999057 97.13647191 -56.94140625 97.16479492 C-58.63287022 97.17980505 -60.32429578 97.20021963 -62.015625 97.22631836 C-64.45843024 97.26304686 -66.9007173 97.27980411 -69.34375 97.29296875 C-70.46299866 97.31619453 -70.46299866 97.31619453 -71.6048584 97.33988953 C-77.76187275 97.34182683 -83.13066711 96.09740617 -88.20703125 92.38671875 C-88.73683594 91.82597656 -89.26664063 91.26523438 -89.8125 90.6875 C-90.35519531 90.13449219 -90.89789063 89.58148438 -91.45703125 89.01171875 C-96.94814056 81.85242434 -96.99421912 74.62756858 -96.29736328 65.97607422 C-95.45140431 60.35440596 -92.27757318 56.76715659 -87.92578125 53.390625 C-82.15857048 49.59556579 -77.46758343 48.85777968 -70.61328125 48.90234375 C-69.79627243 48.9037587 -68.97926361 48.90517365 -68.13749695 48.90663147 C-65.52912732 48.91222706 -62.92084366 48.92477871 -60.3125 48.9375 C-58.54362103 48.94251557 -56.77474072 48.94707838 -55.00585938 48.95117188 C-50.67053981 48.96219504 -46.33528448 48.97945662 -42 49 C-42.02094727 47.99211426 -42.04189453 46.98422852 -42.06347656 45.94580078 C-42.13654753 42.16258268 -42.18204009 38.37942532 -42.21972656 34.59570312 C-42.23969079 32.96636422 -42.2668723 31.33709555 -42.30175781 29.70800781 C-42.52256043 19.12247049 -42.68941906 9.86177382 -35.75 1.1875 C-23.88861184 -8.24769512 -12.51382976 -9.89103773 0 0 Z " fill="#587CFB" transform="translate(113,114)"/>
<path d="M0 0 C12.21 0 24.42 0 37 0 C37.495 0.99 37.495 0.99 38 2 C38.79535156 2.28488281 39.59070313 2.56976563 40.41015625 2.86328125 C43.52909257 4.23222615 44.04334122 5.13873519 45.4375 8.1875 C45.84871094 9.07695312 46.25992188 9.96640625 46.68359375 10.8828125 C48.68168571 15.6141994 50.55539974 20.38910898 52.375 25.19140625 C54.17502193 29.67822561 56.58197498 33.822814 59 38 C59.47945068 36.88439697 59.95890137 35.76879395 60.45288086 34.61938477 C62.22651548 30.49415989 64.00327799 26.37028856 65.78100586 22.24682617 C66.55107116 20.45943584 67.32027915 18.67167591 68.08862305 16.88354492 C69.19096143 14.31852931 70.29634129 11.75484369 71.40234375 9.19140625 C71.74716293 8.3872377 72.09198212 7.58306915 72.44725037 6.75453186 C74.88612829 1.11387171 74.88612829 1.11387171 76 0 C78.59359322 -0.08851529 81.16039691 -0.11525945 83.75390625 -0.09765625 C84.52935287 -0.0962413 85.3047995 -0.09482635 86.10374451 -0.09336853 C88.59003494 -0.08775345 91.0762366 -0.07519846 93.5625 -0.0625 C95.24413933 -0.05748694 96.92578006 -0.0529237 98.60742188 -0.04882812 C102.73831566 -0.03777913 106.86914276 -0.02050445 111 0 C111.495 0.99 111.495 0.99 112 2 C113.97888961 2.72693904 115.97954558 3.39816251 118 4 C117.67 5.32 117.34 6.64 117 8 C114.36 8.33 111.72 8.66 109 9 C108.93047515 17.40583263 108.87717634 25.81154502 108.84456348 34.21759415 C108.82891055 38.12091481 108.80767939 42.02403869 108.77368164 45.92724609 C108.74107443 49.69440392 108.72314418 53.46137252 108.71536827 57.22866058 C108.70982716 58.66558562 108.69900664 60.10250035 108.68280983 61.53934479 C108.66102011 63.55249422 108.65977446 65.56583424 108.65942383 67.57910156 C108.65276199 68.72493713 108.64610016 69.87077271 108.63923645 71.05133057 C109.04099347 74.33505653 109.71579359 75.65231578 112 78 C112.886875 78.495 113.77375 78.99 114.6875 79.5 C115.450625 79.995 116.21375 80.49 117 81 C117 82.32 117 83.64 117 85 C112.59078073 86.11096733 108.32413331 86.09096532 103.8125 85.984375 C102.64231323 85.95963104 102.64231323 85.95963104 101.44848633 85.93438721 C99.80445148 85.8970153 98.16048574 85.8564858 96.51660156 85.81298828 C94.00854255 85.75021381 91.50068756 85.70877736 88.9921875 85.66796875 C87.39059242 85.62891815 85.78902774 85.5885961 84.1875 85.546875 C83.06855347 85.53258453 83.06855347 85.53258453 81.92700195 85.51800537 C77.42565419 85.37085286 74.66135137 84.60557361 71 82 C69.34630643 81.30177383 67.68272986 80.62501395 66 80 C66 79.01 66 78.02 66 77 C66.63808594 76.80664062 67.27617187 76.61328125 67.93359375 76.4140625 C68.75988281 76.15367187 69.58617187 75.89328125 70.4375 75.625 C71.26121094 75.36976563 72.08492188 75.11453125 72.93359375 74.8515625 C75.17798016 74.19117773 75.17798016 74.19117773 76 72 C76.08683445 69.22839374 76.1155579 66.48225235 76.09765625 63.7109375 C76.0962413 62.89251373 76.09482635 62.07408997 76.09336853 61.23086548 C76.0877629 58.61220675 76.07520948 55.99363296 76.0625 53.375 C76.05748572 51.60156373 76.05292269 49.82812613 76.04882812 48.0546875 C76.03779164 43.70309218 76.02052325 39.3515605 76 35 C75.8047876 35.53141602 75.6095752 36.06283203 75.40844727 36.61035156 C70.74909892 49.22801277 65.76596752 61.63673405 60.02929688 73.80712891 C59.3284519 75.30024788 58.64816599 76.80315096 57.98632812 78.31396484 C57.65568359 79.03922363 57.32503906 79.76448242 56.984375 80.51171875 C56.69788086 81.15971436 56.41138672 81.80770996 56.11621094 82.4753418 C55 84 55 84 53.03613281 84.82739258 C51 85 51 85 48.4375 83.25 C47.633125 82.5075 46.82875 81.765 46 81 C45.49328262 80.54160736 44.98656525 80.08321472 44.4644928 79.6109314 C42.8234299 77.80577417 42.05327357 76.22862901 41.13061523 73.97509766 C40.79694443 73.17061188 40.46327362 72.3661261 40.11949158 71.53726196 C39.76939529 70.67160614 39.41929901 69.80595032 39.05859375 68.9140625 C38.69024918 68.02012787 38.3219046 67.12619324 37.94239807 66.20516968 C36.76703449 63.34795376 35.60218212 60.4865843 34.4375 57.625 C33.6497718 55.70544864 32.86136796 53.78617438 32.07226562 51.8671875 C29.35654306 45.25494644 26.64210322 38.64208327 24 32 C23.92573372 37.74744858 23.87134274 43.4946166 23.83520508 49.24243164 C23.82013699 51.19690823 23.79967876 53.15135112 23.77368164 55.10571289 C23.73721135 57.91821623 23.72025378 60.73027174 23.70703125 63.54296875 C23.69154739 64.41398727 23.67606354 65.2850058 23.66011047 66.18241882 C23.65879953 70.92923593 23.83054196 74.19286675 27 78 C28.96752828 79.06246527 30.96587579 80.07137808 33 81 C33.33 81.66 33.66 82.32 34 83 C33.67 83.66 33.34 84.32 33 85 C11.01112744 85.2295822 11.01112744 85.2295822 6 84 C5.67 83.34 5.34 82.68 5 82 C3.35636866 81.27840576 1.68949614 80.60648579 0 80 C0 79.01 0 78.02 0 77 C1.11375 76.566875 2.2275 76.13375 3.375 75.6875 C7.17512334 74.30088881 7.17512334 74.30088881 9 71 C9.29125793 68.14825128 9.29125793 68.14825128 9.22705078 64.8762207 C9.22689972 63.61513992 9.22674866 62.35405914 9.22659302 61.05476379 C9.21637976 59.67843468 9.20594777 58.30210717 9.1953125 56.92578125 C9.19158172 55.51759542 9.18873506 54.109407 9.18673706 52.70121765 C9.17910564 48.9972719 9.15946148 45.29348332 9.1373291 41.58959961 C9.11686003 37.80910366 9.10773308 34.02858228 9.09765625 30.24804688 C9.07621504 22.83195964 9.04208513 15.41600186 9 8 C8.34 7.67 7.68 7.34 7 7 C7 6.01 7 5.02 7 4 C4.69 4 2.38 4 0 4 C0 2.68 0 1.36 0 0 Z M76 15 C74.80057395 17.59925496 73.61527179 20.20345507 72.4375 22.8125 C72.09525391 23.55048828 71.75300781 24.28847656 71.40039062 25.04882812 C71.08134766 25.76103516 70.76230469 26.47324219 70.43359375 27.20703125 C70.13509521 27.8616333 69.83659668 28.51623535 69.52905273 29.19067383 C68.75273083 31.20780553 68.75273083 31.20780553 70 34 C70.98838433 31.9627797 71.96532252 29.92000393 72.9375 27.875 C73.48277344 26.73804688 74.02804688 25.60109375 74.58984375 24.4296875 C75.9103119 21.21813339 76.58784221 18.43290921 77 15 C76.67 15 76.34 15 76 15 Z " fill="#5371FB" transform="translate(136,220)"/>
<path d="M0 0 C4.35403865 -0.08755672 8.70784877 -0.14057969 13.0625 -0.1875 C14.29162109 -0.21263672 15.52074219 -0.23777344 16.78710938 -0.26367188 C29.14150616 -0.36357266 29.14150616 -0.36357266 34 3 C35.04836049 7.2467822 35.09971834 11.3355162 35.03417969 15.69213867 C35.0179657 17.00337204 35.00175171 18.31460541 34.98504639 19.66557312 C34.97443932 20.35858709 34.96383224 21.05160107 34.95290375 21.76561546 C34.91064409 24.69701708 34.88733985 27.62847576 34.86287308 30.56007099 C34.81720856 36.00866643 34.76381602 41.45690811 34.67773438 46.9050293 C34.61841994 50.70503002 34.58339851 54.50457878 34.56455231 58.30498695 C34.55280094 59.75118444 34.53197283 61.19733764 34.50191498 62.64327049 C34.46100757 64.66052656 34.45383022 66.67838186 34.44824219 68.69604492 C34.43412292 69.84376877 34.42000366 70.99149261 34.40545654 72.17399597 C34.70559399 75.2295147 34.70559399 75.2295147 37.53448486 76.70649719 C38.34810486 77.13335312 39.16172485 77.56020905 40 78 C40 78.99 40 79.98 40 81 C37.50145233 81.65192688 35.0013863 82.29663064 32.5 82.9375 C31.45585937 83.21110352 31.45585937 83.21110352 30.390625 83.49023438 C23.00055777 85.37196446 16.62367408 86.19587044 9 85 C7.515 85.495 7.515 85.495 6 86 C-2.13636091 87.52360426 -7.46250966 84.49567153 -14.1171875 80.23828125 C-18.54042456 76.80397931 -21.17390916 73.26496124 -23.1875 68.0625 C-23.51105469 67.24910156 -23.83460938 66.43570313 -24.16796875 65.59765625 C-25 63 -25 63 -26 57 C-35.57 57 -45.14 57 -55 57 C-54.57006416 64.44400631 -54.57006416 64.44400631 -52 71 C-48.62168934 72.54437059 -46.98960987 71.9967189 -43.4375 70.875 C-39.88696463 68.93834435 -38.44733681 67.12246421 -36 64 C-34.68 64 -33.36 64 -32 64 C-32 64.99 -32 65.98 -32 67 C-31.21625 66.95875 -30.4325 66.9175 -29.625 66.875 C-27 67 -27 67 -25 69 C-25 73.42934855 -27.27472253 76.14776607 -30.12109375 79.2890625 C-37.4735988 85.984275 -45.41836227 87.39123948 -55.078125 87.2734375 C-59.1375607 86.89354378 -61.81603774 85.36702457 -65 83 C-65.8146875 82.49082031 -66.629375 81.98164063 -67.46875 81.45703125 C-75.36823102 76.38045301 -79.48498149 71.0650015 -82 62 C-83.03123774 50.53647349 -82.14752098 40.86766923 -74.75 31.625 C-69.02404651 25.67000838 -64.29554978 23.78330586 -56 23.5 C-49.96773865 23.70535358 -45.89182401 24.49172217 -41 28 C-40.16597656 28.57105469 -39.33195312 29.14210937 -38.47265625 29.73046875 C-32.58807977 34.05965057 -28.94240831 38.30989269 -26 45 C-25.75765625 44.27554688 -25.5153125 43.55109375 -25.265625 42.8046875 C-20.24064296 28.309547 -20.24064296 28.309547 -13.26171875 24.69140625 C-7.45597974 22.91659484 -0.5084881 22.67814172 4.8984375 25.52734375 C5.59195313 26.01332031 6.28546875 26.49929687 7 27 C6.86145912 23.70798357 6.71292976 20.41649291 6.5625 17.125 C6.52318359 16.18785156 6.48386719 15.25070313 6.44335938 14.28515625 C6.40146484 13.38925781 6.35957031 12.49335938 6.31640625 11.5703125 C6.27974854 10.74289551 6.24309082 9.91547852 6.20532227 9.06298828 C6.11761673 6.93820571 6.11761673 6.93820571 5 5 C2.47266765 4.34444881 2.47266765 4.34444881 0 4 C0 2.68 0 1.36 0 0 Z M-53 34 C-53.226875 35.258125 -53.45375 36.51625 -53.6875 37.8125 C-53.81511719 38.52019531 -53.94273437 39.22789062 -54.07421875 39.95703125 C-54.21525355 42.46571562 -54.21525355 42.46571562 -51 45 C-51 41.7 -51 38.4 -51 35 C-51.66 34.67 -52.32 34.34 -53 34 Z M6 35 C1.96008682 44.42646408 1.23675856 55.67919718 4.5 65.5 C4.995 66.655 5.49 67.81 6 69 C6.33 69 6.66 69 7 69 C7 57.78 7 46.56 7 35 C6.67 35 6.34 35 6 35 Z M-35 71 C-34 73 -34 73 -34 73 Z " fill="#5471F8" transform="translate(334,220)"/>
<path d="M0 0 C0.92167969 0.515625 1.84335937 1.03125 2.79296875 1.5625 C9.42543467 5.42920078 13.48994169 9.16104769 17 16 C17.59941406 17.10601562 17.59941406 17.10601562 18.2109375 18.234375 C22.37562942 27.036348 23.54156958 39.34310642 20.859375 48.78515625 C16.67191105 59.57739289 11.85552324 67.7307035 1.875 73.6875 C-3.45992369 76.83545621 -3.45992369 76.83545621 -8 81 C-2.89322033 84.35588378 1.84708725 84.42323922 7.87890625 84.59375 C11.31378285 85.04084282 13.17434567 86.05332777 16 88 C16.66 88.33 17.32 88.66 18 89 C17.67 90.98 17.34 92.96 17 95 C0.67026222 99.21412588 -13.47934724 97.1536688 -28.09375 88.9765625 C-32.03093491 86.29885341 -34.85372225 83.26315444 -37 79 C-37 78.34 -37 77.68 -37 77 C-38.216875 76.67 -39.43375 76.34 -40.6875 76 C-52.22591753 72.1053291 -62.9541076 64.94982367 -68.55859375 53.9375 C-74.00110101 41.35652004 -74.80192457 28.99837709 -70.2578125 15.90625 C-68.41445008 11.64705237 -66.18673184 8.35718494 -63 5 C-62.42507813 4.38511719 -61.85015625 3.77023438 -61.2578125 3.13671875 C-44.95334729 -12.66034609 -18.186287 -11.24798927 0 0 Z M-33 8 C-38.20594944 16.7968001 -38.18189172 25.78969271 -38.1875 35.75 C-38.19974609 36.87921875 -38.21199219 38.0084375 -38.22460938 39.171875 C-38.23971752 47.87416702 -37.29531575 55.89501924 -34.375 64.125 C-34.11460937 64.87007812 -33.85421875 65.61515625 -33.5859375 66.3828125 C-33.39257812 66.91648437 -33.19921875 67.45015625 -33 68 C-29.10668627 68.19796511 -26.02196044 68.33273131 -22.3125 67.125 C-15.26889727 60.65250019 -13.35914947 50.85859626 -12.87890625 41.6875 C-12.36177107 28.11787276 -11.97310626 13.62515645 -20 2 C-26.10126149 1.10713247 -29.21989414 3.51341805 -33 8 Z " fill="#5371FA" transform="translate(445,227)"/>
<path d="M0 0 C5.52565152 5.65505788 7.22826135 12.39639086 7.22659302 20.12937927 C7.21627045 20.85883255 7.20594788 21.58828583 7.1953125 22.33984375 C7.1924826 23.10680069 7.18965271 23.87375763 7.18673706 24.66395569 C7.17563475 27.08863621 7.15054967 29.51293309 7.125 31.9375 C7.1149573 33.5917915 7.10583372 35.24608885 7.09765625 36.90039062 C7.07572817 40.93373923 7.04126843 44.9668048 7 49 C8.07894531 48.97905273 9.15789062 48.95810547 10.26953125 48.93652344 C14.30243468 48.86369576 18.3352809 48.81804616 22.36865234 48.78027344 C24.10866089 48.76025478 25.84860299 48.73303114 27.58837891 48.69824219 C30.10075346 48.64929048 32.61223275 48.62693413 35.125 48.609375 C35.89303955 48.58872986 36.6610791 48.56808472 37.45239258 48.54681396 C44.4268916 48.54396708 49.44160908 50.84862582 54.75 55.3125 C59.79644156 61.34019409 62.33718919 66.84582457 62.21875 74.78125 C61.61117546 80.94379173 59.46859636 86.65217652 55 91 C48.4899398 95.63874735 43.67659154 97.15336474 35.6484375 97.1328125 C34.83380035 97.13376923 34.01916321 97.13472595 33.17984009 97.13571167 C31.46006188 97.13639166 29.74028108 97.13454998 28.02050781 97.13037109 C25.37819717 97.12500649 22.73605545 97.13032925 20.09375 97.13671875 C18.42447879 97.13605821 16.75520768 97.13477754 15.0859375 97.1328125 C13.89380142 97.13584885 13.89380142 97.13584885 12.67758179 97.13894653 C7.11496014 97.11496014 7.11496014 97.11496014 6 96 C5.89085853 94.41021645 5.84416316 92.81605696 5.82421875 91.22265625 C5.78844727 89.73862305 5.78844727 89.73862305 5.75195312 88.22460938 C5.70970494 86.1518877 5.67807268 84.07891636 5.65820312 82.00585938 C5.38960773 72.30519312 3.05996344 63.89950973 -4 57 C-6.56642856 55.12734177 -9.18456371 53.47170534 -12 52 C-12.68964844 51.63519531 -13.37929687 51.27039063 -14.08984375 50.89453125 C-18.52444797 49.53141129 -22.94684405 49.56702902 -27.5625 49.4375 C-29.43892376 49.37738281 -31.31523794 49.31371536 -33.19140625 49.24609375 C-34.01842041 49.22216553 -34.84543457 49.1982373 -35.69750977 49.17358398 C-37.90823566 49.00691808 -39.87218038 48.60676942 -42 48 C-42.09982927 43.3410447 -42.17191433 38.68272922 -42.21972656 34.02294922 C-42.23968422 32.44210955 -42.2668606 30.86134217 -42.30175781 29.28076172 C-42.52639715 18.83503233 -42.59536714 9.74420893 -35.75 1.1875 C-23.88861184 -8.24769512 -12.51382976 -9.89103773 0 0 Z " fill="#68DAFD" transform="translate(113,114)"/>
<path d="M0 0 C12.21 0 24.42 0 37 0 C39 4 39 4 39.42749023 6.26782227 C40.19943534 9.95176158 41.67807017 13.27348207 43.16015625 16.71484375 C43.79526317 18.22055921 44.43001804 19.72642321 45.06445312 21.23242188 C46.06313544 23.5887225 47.06507266 25.9435008 48.07348633 28.2956543 C49.04936899 30.5773257 50.01180734 32.86430866 50.97265625 35.15234375 C51.42730003 36.19792702 51.42730003 36.19792702 51.89112854 37.26463318 C53.59121689 41.33971001 54.33267438 44.58766454 54 49 C54.99 49 55.98 49 57 49 C57 48.34 57 47.68 57 47 C57.99 47.33 58.98 47.66 60 48 C59.71125 48.639375 59.4225 49.27875 59.125 49.9375 C58.21521765 52.41412974 57.67400428 54.52917746 57.1875 57.09375 C56.0690696 62.24364683 54.09301498 66.80121342 51.875 71.5625 C51.50246094 72.38041016 51.12992188 73.19832031 50.74609375 74.04101562 C49.83843731 76.03087781 48.92031935 78.0159627 48 80 C46.68 80 45.36 80 44 80 C41.79341483 74.77181923 39.58805932 69.54312204 37.38378906 64.31396484 C36.63542016 62.5390865 35.88672887 60.76434404 35.13769531 58.98974609 C27.39257658 40.63897812 27.39257658 40.63897812 24 32 C23.92573372 37.74744858 23.87134274 43.4946166 23.83520508 49.24243164 C23.82013699 51.19690823 23.79967876 53.15135112 23.77368164 55.10571289 C23.73721135 57.91821623 23.72025378 60.73027174 23.70703125 63.54296875 C23.69154739 64.41398727 23.67606354 65.2850058 23.66011047 66.18241882 C23.65879953 70.92923593 23.83054196 74.19286675 27 78 C28.96752828 79.06246527 30.96587579 80.07137808 33 81 C33.33 81.66 33.66 82.32 34 83 C33.67 83.66 33.34 84.32 33 85 C11.01112744 85.2295822 11.01112744 85.2295822 6 84 C5.67 83.34 5.34 82.68 5 82 C3.35636866 81.27840576 1.68949614 80.60648579 0 80 C0 79.01 0 78.02 0 77 C1.11375 76.566875 2.2275 76.13375 3.375 75.6875 C7.17512334 74.30088881 7.17512334 74.30088881 9 71 C9.29125793 68.14825128 9.29125793 68.14825128 9.22705078 64.8762207 C9.22689972 63.61513992 9.22674866 62.35405914 9.22659302 61.05476379 C9.21637976 59.67843468 9.20594777 58.30210717 9.1953125 56.92578125 C9.19158172 55.51759542 9.18873506 54.109407 9.18673706 52.70121765 C9.17910564 48.9972719 9.15946148 45.29348332 9.1373291 41.58959961 C9.11686003 37.80910366 9.10773308 34.02858228 9.09765625 30.24804688 C9.07621504 22.83195964 9.04208513 15.41600186 9 8 C8.34 7.67 7.68 7.34 7 7 C7 6.01 7 5.02 7 4 C4.69 4 2.38 4 0 4 C0 2.68 0 1.36 0 0 Z " fill="#5472F9" transform="translate(136,220)"/>
<path d="M0 0 C-0.125 2.1875 -0.125 2.1875 -1 5 C-2.46918465 6.17534772 -3.94099819 7.34791809 -5.4375 8.48828125 C-10.5075367 13.39354176 -11.80816978 21.1582372 -12.14526367 27.90917969 C-12.16998611 31.18955537 -12.18565289 34.4695244 -12.1875 37.75 C-12.19974609 38.87921875 -12.21199219 40.0084375 -12.22460938 41.171875 C-12.23654238 48.04528402 -11.63162084 54.32667859 -10 61 C-9.79117187 61.97195313 -9.58234375 62.94390625 -9.3671875 63.9453125 C-9.20476562 64.66460937 -9.04234375 65.38390625 -8.875 66.125 C-8.441875 68.043125 -8.441875 68.043125 -8 70 C-6.39536551 69.68991116 -4.79130769 69.37683713 -3.1875 69.0625 C-1.84751953 68.80146484 -1.84751953 68.80146484 -0.48046875 68.53515625 C2.11397171 68.02258847 2.11397171 68.02258847 5 67 C5 67.99 5 68.98 5 70 C8.10551666 70 9.35261084 69.4606285 12 68 C11 71 11 71 10 72 C11.65 72 13.3 72 15 72 C15 71.34 15 70.68 15 70 C15.99 69.979375 16.98 69.95875 18 69.9375 C23.27352268 69.15821426 26.55671776 65.87097414 30 62 C35.78791829 53.77427634 38.57924523 44.69401096 38.5 34.6875 C38.49359497 33.44963745 38.49359497 33.44963745 38.48706055 32.18676758 C38.20841565 22.10730521 34.79102898 14.37311718 28 7 C28 6.34 28 5.68 28 5 C34.97049962 7.38988558 38.43000261 11.01090413 41.6875 17.5625 C47.16534722 28.78790915 48.97244808 40.96969516 45 53 C40.73587567 62.98397691 36.20126967 70.12118958 26.875 75.6875 C21.54007631 78.83545621 21.54007631 78.83545621 17 83 C22.10677967 86.35588378 26.84708725 86.42323922 32.87890625 86.59375 C36.31378285 87.04084282 38.17434567 88.05332777 41 90 C41.66 90.33 42.32 90.66 43 91 C42.67 92.98 42.34 94.96 42 97 C25.67026222 101.21412588 11.52065276 99.1536688 -3.09375 90.9765625 C-7.03093491 88.29885341 -9.85372225 85.26315444 -12 81 C-12 80.34 -12 79.68 -12 79 C-12.59167969 78.81824219 -13.18335938 78.63648438 -13.79296875 78.44921875 C-18.18944515 77.0506659 -22.19721203 75.69875275 -26 73 C-26 72.67 -26 72.34 -26 72 C-24.6696875 72.185625 -24.6696875 72.185625 -23.3125 72.375 C-19.64418661 71.95971924 -19.32959535 71.69099605 -17.125 69 C-16.42375 68.01 -15.7225 67.02 -15 66 C-15.66 66 -16.32 66 -17 66 C-21.08169903 46.90231645 -25.86313503 23.5110445 -14.96484375 5.66796875 C-10.53891163 -0.34179594 -7.1367012 -0.41173276 0 0 Z " fill="#5472F8" transform="translate(420,225)"/>
<path d="M0 0 C3.79124747 -0.14714061 7.58174654 -0.23467827 11.375 -0.3125 C12.96634766 -0.3753418 12.96634766 -0.3753418 14.58984375 -0.43945312 C24.43202549 -0.59040683 32.15616344 2.55266964 39.46484375 9.1875 C44.33365708 14.93592083 47.13716702 22.07543327 47.09765625 29.54296875 C47.09443359 30.61611328 47.09121094 31.68925781 47.08789062 32.79492188 C47.07532227 34.47424805 47.07532227 34.47424805 47.0625 36.1875 C47.05798828 37.31865234 47.05347656 38.44980469 47.04882812 39.61523438 C47.03703498 42.41020927 47.0205765 45.2050782 47 48 C43.35444442 48.11755481 39.70938526 48.18769812 36.0625 48.25 C34.53012695 48.30027344 34.53012695 48.30027344 32.96679688 48.3515625 C23.43166445 48.47341723 15.03363362 45.6466155 8 39 C0.68677107 30.05224755 -0.30644822 22.30531107 -0.125 11.0625 C-0.11597656 9.99708984 -0.10695313 8.93167969 -0.09765625 7.83398438 C-0.07423414 5.22241966 -0.04143452 2.61133063 0 0 Z " fill="#2623FB" transform="translate(72,163)"/>
<path d="M0 0 C2.85566912 1.71585269 5.19790398 3.71005464 7.375 6.25 C6.611875 5.940625 5.84875 5.63125 5.0625 5.3125 C3.18710323 4.57106407 1.28815348 3.88771783 -0.625 3.25 C-0.625 2.59 -0.625 1.93 -0.625 1.25 C-3.265 0.92 -5.905 0.59 -8.625 0.25 C-8.13386719 0.94480469 -7.64273437 1.63960937 -7.13671875 2.35546875 C-5.37671541 5.72539763 -5.31323419 7.79310384 -5.4375 11.5625 C-5.47810547 13.16544922 -5.47810547 13.16544922 -5.51953125 14.80078125 C-5.55433594 15.60902344 -5.58914063 16.41726563 -5.625 17.25 C-5.955 17.25 -6.285 17.25 -6.625 17.25 C-6.82416016 15.96802734 -6.82416016 15.96802734 -7.02734375 14.66015625 C-7.20394531 13.55542969 -7.38054687 12.45070313 -7.5625 11.3125 C-7.73652344 10.21035156 -7.91054688 9.10820312 -8.08984375 7.97265625 C-8.34345136 5.34573071 -8.34345136 5.34573071 -9.625 4.25 C-11.29117115 4.20936168 -12.95888095 4.207279 -14.625 4.25 C-17.70413548 10.27439551 -18.20840665 15.50118777 -18.625 22.25 C-14.665 22.25 -10.705 22.25 -6.625 22.25 C-6.625 22.58 -6.625 22.91 -6.625 23.25 C-9.595 23.58 -12.565 23.91 -15.625 24.25 C-2.755 24.745 -2.755 24.745 10.375 25.25 C9.385 18.815 9.385 18.815 8.375 12.25 C10.375 13.25 10.375 13.25 11.5 16.4375 C12.375 20.25 12.375 20.25 12.375 26.25 C2.145 26.25 -8.085 26.25 -18.625 26.25 C-16.9865322 36.28305862 -16.9865322 36.28305862 -11.625 44.25 C-7.04916587 46.01136996 -3.56494954 46.51195315 1.1875 45.1875 C4.46127064 43.19756098 6.04351754 41.22465003 8.375 38.25 C9.695 38.25 11.015 38.25 12.375 38.25 C12.375 39.24 12.375 40.23 12.375 41.25 C13.550625 41.188125 13.550625 41.188125 14.75 41.125 C17.375 41.25 17.375 41.25 19.375 43.25 C19.375 47.67934855 17.10027747 50.39776607 14.25390625 53.5390625 C6.9014012 60.234275 -1.04336227 61.64123948 -10.703125 61.5234375 C-14.7625607 61.14354378 -17.44103774 59.61702457 -20.625 57.25 C-21.4396875 56.74082031 -22.254375 56.23164063 -23.09375 55.70703125 C-30.99323102 50.63045301 -35.10998149 45.3150015 -37.625 36.25 C-38.65623774 24.78647349 -37.77252098 15.11766923 -30.375 5.875 C-22.42616862 -2.39178464 -10.76458931 -5.07991855 0 0 Z M9.375 45.25 C10.375 47.25 10.375 47.25 10.375 47.25 Z " fill="#5371F8" transform="translate(289.625,245.75)"/>
<path d="M0 0 C8.91 0 17.82 0 27 0 C27.495 36.63 27.495 36.63 28 74 C29.65 74 31.3 74 33 74 C32.505 75.485 32.505 75.485 32 77 C24.30717633 80.17377954 16.19520586 80.39232368 8 80 C7.63720544 78.71073008 7.28503302 77.41846728 6.9375 76.125 C6.74027344 75.40570313 6.54304688 74.68640625 6.33984375 73.9453125 C6 72 6 72 7 70 C7.07492124 67.04529364 7.09116391 64.11422566 7.0625 61.16015625 C7.05871338 60.28225937 7.05492676 59.40436249 7.05102539 58.49986267 C7.03463648 54.73528433 7.00652178 50.97081338 6.97949219 47.20629883 C6.9614438 44.46175637 6.94932525 41.71723142 6.9375 38.97265625 C6.92920166 38.11946304 6.92090332 37.26626984 6.91235352 36.38722229 C6.89827443 33.00238236 6.92181429 30.23455714 8 27 C8.22580761 23.85804835 8.18514806 20.71175013 8.1875 17.5625 C8.19974609 16.70333984 8.21199219 15.84417969 8.22460938 14.95898438 C8.22654297 14.12818359 8.22847656 13.29738281 8.23046875 12.44140625 C8.23457764 11.68545166 8.23868652 10.92949707 8.24291992 10.15063477 C7.9693852 7.72895898 7.20294367 6.10224611 6 4 C4.02 4 2.04 4 0 4 C0 2.68 0 1.36 0 0 Z " fill="#5372F9" transform="translate(334,220)"/>
<path d="M0 0 C0.66 0 1.32 0 2 0 C2 0.99 2 1.98 2 3 C2.66 3 3.32 3 4 3 C4.33 2.34 4.66 1.68 5 1 C8.18965075 2.59482538 8.8044255 5.83491719 10.0625 9 C10.33126953 9.63550781 10.60003906 10.27101562 10.87695312 10.92578125 C14.04749826 18.8165644 14.14703793 26.8296456 13.9921875 35.234375 C13.97468995 36.95962973 13.9577799 38.68489049 13.94140625 40.41015625 C13.91035607 43.09180779 13.87460294 45.77315052 13.82861328 48.45458984 C13.78625793 51.0687242 13.76284872 53.68249136 13.7421875 56.296875 C13.72356659 57.09591248 13.70494568 57.89494995 13.6857605 58.71820068 C13.6646844 63.30271243 13.98590656 66.29965033 17 70 C18.96752828 71.06246527 20.96587579 72.07137808 23 73 C23.33 73.66 23.66 74.32 24 75 C23.67 75.66 23.34 76.32 23 77 C1.01112744 77.2295822 1.01112744 77.2295822 -4 76 C-4.33 75.34 -4.66 74.68 -5 74 C-6.64363134 73.27840576 -8.31050386 72.60648579 -10 72 C-10 71.01 -10 70.02 -10 69 C-8.88625 68.566875 -7.7725 68.13375 -6.625 67.6875 C-2.82487666 66.30088881 -2.82487666 66.30088881 -1 63 C-0.67048702 60.14950105 -0.67048702 60.14950105 -0.68115234 56.8762207 C-0.65134781 54.98459953 -0.65134781 54.98459953 -0.62094116 53.05476379 C-0.60906478 51.67843806 -0.59740192 50.30211047 -0.5859375 48.92578125 C-0.56722711 47.51758181 -0.54765379 46.1093936 -0.5272522 44.70121765 C-0.47591107 40.99741227 -0.43629615 37.29357054 -0.39910889 33.58959961 C-0.35908153 29.8089904 -0.30798344 26.02853268 -0.2578125 22.24804688 C-0.16102983 14.83213516 -0.07663274 7.4161502 0 0 Z " fill="#5C77F3" transform="translate(146,228)"/>
<path d="M0 0 C1.45880109 0.14107747 2.91703551 0.28802415 4.375 0.4375 C5.59316406 0.55931641 5.59316406 0.55931641 6.8359375 0.68359375 C9 1 9 1 11 2 C11 2.66 11 3.32 11 4 C11.58007812 4.1340625 12.16015625 4.268125 12.7578125 4.40625 C19.95878184 6.3131269 23.83384016 9.35602819 27.7734375 15.68359375 C30.65826655 21.13169448 31.3048571 24.90285804 31 31 C30 32 30 32 27.22436523 32.11352539 C26.01466064 32.10828857 24.80495605 32.10305176 23.55859375 32.09765625 C22.25341797 32.09443359 20.94824219 32.09121094 19.60351562 32.08789062 C18.2148431 32.07953401 16.82617123 32.07106905 15.4375 32.0625 C14.04492344 32.05748666 12.65234519 32.05292347 11.25976562 32.04882812 C7.8398013 32.03699434 4.41992156 32.0205088 1 32 C1.15356453 33.43634649 1.30884419 34.87250968 1.46484375 36.30859375 C1.55113037 37.10837646 1.63741699 37.90815918 1.72631836 38.73217773 C2.0226728 41.18787481 2.45521376 43.58737522 3 46 C-0.00148136 45.67841271 -0.98205792 45.01846979 -3.125 42.8125 C-6.80914838 37.28627744 -7 33.78640151 -7 27 C3.23 27 13.46 27 24 27 C23.01 23.04 22.02 19.08 21 15 C21.33 18.63 21.66 22.26 22 26 C13.09 26 4.18 26 -5 26 C-4.67 25.34 -4.34 24.68 -4 24 C-4.99 23.67 -5.98 23.34 -7 23 C-7.33216812 16.19670485 -7.28758339 11.04915344 -4 5 C-3 4 -3 4 -0.5625 3.8125 C2 4 2 4 4 6 C3.94140625 8.53125 3.94140625 8.53125 3.5625 11.5 C2.91377236 15.38927567 2.91377236 15.38927567 4 19 C5.79061272 17.20938728 5.17289466 14.60322258 5.1875 12.1875 C5.20167969 11.12917969 5.21585937 10.07085937 5.23046875 8.98046875 C5.00170964 6.02210947 4.6474441 4.43559012 3 2 C2.01 1.34 1.02 0.68 0 0 Z " fill="#5271FC" transform="translate(278,245)"/>
<path d="M0 0 C2.59677437 0.35091546 4.57042653 0.72674056 6.7961731 2.14257812 C8.63814206 4.98460919 8.32069278 7.36087824 8.26123047 10.71875 C8.25363708 11.39711914 8.2460437 12.07548828 8.23822021 12.77441406 C8.22011916 14.24610697 8.19523142 15.71772849 8.16436386 17.18920898 C8.11683058 19.51748287 8.08971368 21.84517581 8.06838989 24.17382812 C8.00415442 30.79345049 7.90340278 37.41234405 7.78759766 44.03125 C7.71816568 48.08059185 7.6729886 52.12963124 7.64242935 56.17944336 C7.62563539 57.72336134 7.59921182 59.26720533 7.5630455 60.81079102 C7.51271754 62.96801058 7.49298573 65.12352944 7.47998047 67.28125 C7.4598288 68.50908203 7.43967712 69.73691406 7.41891479 71.00195312 C7.67722208 74.21468 7.67722208 74.21468 10.53250122 75.73242188 C11.75391312 76.35987305 11.75391312 76.35987305 13 77 C13 77.99 13 78.98 13 80 C10.50145233 80.65192688 8.0013863 81.29663064 5.5 81.9375 C4.80390625 82.11990234 4.1078125 82.30230469 3.390625 82.49023438 C-3.99944223 84.37196446 -10.37632592 85.19587044 -18 84 C-19.485 84.495 -19.485 84.495 -21 85 C-25.7107803 85.41518742 -29.75665812 85.54707043 -34.125 83.625 C-34.74375 83.08875 -35.3625 82.5525 -36 82 C-36 81.34 -36 80.68 -36 80 C-34.87851562 79.83564453 -34.87851562 79.83564453 -33.734375 79.66796875 C-32.74953125 79.50941406 -31.7646875 79.35085938 -30.75 79.1875 C-29.77546875 79.03667969 -28.8009375 78.88585937 -27.796875 78.73046875 C-24.85954628 77.96331725 -23.33110223 76.88241663 -21 75 C-20.34 75 -19.68 75 -19 75 C-19 76.32 -19 77.64 -19 79 C-6.84195092 77.80279927 -6.84195092 77.80279927 5 75 C5.33 74.34 5.66 73.68 6 73 C4.35 73 2.7 73 1 73 C-0.46041228 70.07917545 -0.11928796 67.51698631 -0.11352539 64.25537109 C-0.11367142 63.56257553 -0.11381744 62.86977997 -0.1139679 62.1559906 C-0.11327018 59.86177459 -0.10548442 57.56763936 -0.09765625 55.2734375 C-0.09579157 53.68445887 -0.0943679 52.09547966 -0.09336853 50.50650024 C-0.08954731 46.32090675 -0.07972039 42.13534787 -0.06866455 37.94976807 C-0.05844194 33.68005847 -0.05386909 29.4103433 -0.04882812 25.140625 C-0.03809778 16.76040077 -0.02102608 8.38020469 0 0 Z " fill="#D2F0FD" transform="translate(361,221)"/>
<path d="M0 0 C6.97049962 2.38988558 10.43000261 6.01090413 13.6875 12.5625 C19.16534722 23.78790915 20.97244808 35.96969516 17 48 C12.73613659 57.98336598 8.16935515 65.13425278 -1.125 70.75 C-1.74503906 71.13542969 -2.36507813 71.52085937 -3.00390625 71.91796875 C-4.66583275 72.95086501 -6.33267338 73.9758436 -8 75 C-9.485 75.99 -9.485 75.99 -11 77 C-13.4375 76.9375 -13.4375 76.9375 -16 76 C-18.3125 73.4375 -18.3125 73.4375 -20 71 C-17.77986049 68.77986049 -16.3047195 68.28401865 -13.375 67.25 C-3.87777594 63.52774504 2.68569415 57.61831883 7.2578125 48.48828125 C11.58161162 37.64854709 12.10893946 24.10535091 7.8125 13.1875 C5.71082339 8.89407493 3.22604107 5.50255887 0 2 C0 1.34 0 0.68 0 0 Z " fill="#D3F1FD" transform="translate(448,230)"/>
<path d="M0 0 C1.17046875 0.03609375 2.3409375 0.0721875 3.546875 0.109375 C4.43890625 0.15578125 5.3309375 0.2021875 6.25 0.25 C6.58 1.57 6.91 2.89 7.25 4.25 C0.5 6.25 0.5 6.25 -1.75 6.25 C-1.77315879 14.67313188 -1.79093317 23.09625048 -1.80181217 31.51940632 C-1.80703324 35.43051083 -1.81411685 39.34159357 -1.82543945 43.25268555 C-1.83629584 47.02630515 -1.84228269 50.79990381 -1.84487724 54.57353783 C-1.84672652 56.01405352 -1.85033762 57.45456806 -1.85573006 58.89507484 C-1.86297686 60.9109142 -1.86340837 62.92677458 -1.86352539 64.94262695 C-1.86685631 66.66471123 -1.86685631 66.66471123 -1.87025452 68.42158508 C-1.87681725 71.32895488 -1.87681725 71.32895488 -0.75 74.25 C-7.5 74.375 -7.5 74.375 -9.75 73.25 C-10.85681279 69.92956162 -10.8971523 67.41273169 -10.92700195 63.91430664 C-10.93983719 62.60607437 -10.95267242 61.2978421 -10.96589661 59.94996643 C-10.97406268 58.52003355 -10.98150666 57.0900964 -10.98828125 55.66015625 C-10.99235678 54.93975096 -10.9964323 54.21934566 -11.00063133 53.47710991 C-11.02146895 49.66646488 -11.03578248 45.85585565 -11.04516602 42.04516602 C-11.05624596 38.10955099 -11.09066981 34.17449895 -11.13033772 30.23908329 C-11.15647108 27.2116134 -11.16485471 24.18427862 -11.16844749 21.15670586 C-11.17331939 19.70581686 -11.18495069 18.25493413 -11.20348549 16.80415535 C-11.22780984 14.77460452 -11.22449874 12.74477943 -11.2199707 10.71508789 C-11.22583694 9.56053604 -11.23170319 8.40598419 -11.23774719 7.21644592 C-10.14371724 0.56262864 -6.07827897 -0.24313116 0 0 Z " fill="#CEEFFE" transform="translate(246.75,222.75)"/>
<path d="M0 0 C-0.125 2.1875 -0.125 2.1875 -1 5 C-2.46918465 6.17534772 -3.94099819 7.34791809 -5.4375 8.48828125 C-10.5075367 13.39354176 -11.80816978 21.1582372 -12.14526367 27.90917969 C-12.16998611 31.18955537 -12.18565289 34.4695244 -12.1875 37.75 C-12.19974609 38.87921875 -12.21199219 40.0084375 -12.22460938 41.171875 C-12.23654238 48.04528402 -11.63162084 54.32667859 -10 61 C-9.79117187 61.97195313 -9.58234375 62.94390625 -9.3671875 63.9453125 C-9.20476562 64.66460937 -9.04234375 65.38390625 -8.875 66.125 C-8.441875 68.043125 -8.441875 68.043125 -8 70 C-12.95422961 68.62382511 -14.47999684 66.3850055 -17 62 C-17.99627334 59.31524651 -18.65337164 56.61088342 -19.25 53.8125 C-19.41693359 53.03148926 -19.58386719 52.25047852 -19.75585938 51.44580078 C-22.61992849 36.78352043 -23.00195489 18.82661712 -14.96484375 5.66796875 C-10.53891163 -0.34179594 -7.1367012 -0.41173276 0 0 Z " fill="#D0F0FD" transform="translate(420,225)"/>
<path d="M0 0 C0.36533084 6.86010134 -0.51112428 11.43161605 -3.375 17.625 C-3.72643066 18.41898193 -4.07786133 19.21296387 -4.43994141 20.03100586 C-5.2039469 21.75658155 -5.97421649 23.47939433 -6.75 25.19970703 C-8.09482366 28.21242722 -9.39476526 31.24192458 -10.6875 34.27734375 C-11.58311288 36.37249008 -12.47894273 38.46754369 -13.375 40.5625 C-13.80345215 41.56812988 -14.2319043 42.57375977 -14.67333984 43.60986328 C-15.07762207 44.54427246 -15.4819043 45.47868164 -15.8984375 46.44140625 C-16.25599121 47.27357666 -16.61354492 48.10574707 -16.98193359 48.96313477 C-18 51 -18 51 -20 53 C-23.78903708 52.74739753 -25.54186593 50.72150557 -28 48 C-27.34 48 -26.68 48 -26 48 C-25.62875 46.80890625 -25.2575 45.6178125 -24.875 44.390625 C-22.85394852 38.33221481 -20.34042444 32.49373217 -17.81152344 26.6328125 C-16.99649671 24.74187202 -16.18933004 22.84770802 -15.3828125 20.953125 C-14.86460937 19.7465625 -14.34640625 18.54 -13.8125 17.296875 C-13.34457031 16.20729492 -12.87664062 15.11771484 -12.39453125 13.99511719 C-5.87838278 0 -5.87838278 0 0 0 Z " fill="#D2F2FC" transform="translate(210,252)"/>
<path d="M0 0 C2.36827852 2.36827852 3.24573261 4.4848019 4.5625 7.5625 C4.99691406 8.55378906 5.43132812 9.54507813 5.87890625 10.56640625 C8.17688277 17.60445977 8.13925581 24.9246804 8.0625 32.26953125 C8.05871338 33.11295578 8.05492676 33.95638031 8.05102539 34.82536316 C8.03893162 37.48779731 8.02029219 40.15011653 8 42.8125 C7.97338095 46.33984071 7.95342689 49.86712792 7.9375 53.39453125 C7.92920166 54.19873001 7.92090332 55.00292877 7.91235352 55.83149719 C7.89666927 59.39954315 8.03516219 62.56807121 9 66 C3.51536891 65.51247724 3.51536891 65.51247724 1.32206726 63.33148193 C-0.3663561 60.35392649 -0.36174767 58.361957 -0.34057617 54.94628906 C-0.34034958 53.72532532 -0.34012299 52.50436157 -0.33988953 51.24639893 C-0.31666374 49.27591583 -0.31666374 49.27591583 -0.29296875 47.265625 C-0.28737064 45.90371162 -0.28310155 44.54179219 -0.28010559 43.17987061 C-0.26867361 39.60242921 -0.23922117 36.02535558 -0.20599365 32.44805908 C-0.17525691 28.79485041 -0.16159259 25.14158207 -0.14648438 21.48828125 C-0.11434941 14.32535352 -0.06317358 7.16272837 0 0 Z " fill="#D7F4FC" transform="translate(152,231)"/>
<path d="M0 0 C4.12427012 1.30940325 5.89589716 2.65699413 8.1875 6.3125 C8.92033203 7.45138672 8.92033203 7.45138672 9.66796875 8.61328125 C12.69961159 14.04534511 13.30669786 17.86604275 13 24 C12 25 12 25 9.22436523 25.11352539 C8.01466064 25.10828857 6.80495605 25.10305176 5.55859375 25.09765625 C4.25341797 25.09443359 2.94824219 25.09121094 1.60351562 25.08789062 C0.2148431 25.07953401 -1.17382877 25.07106905 -2.5625 25.0625 C-3.95507656 25.05748666 -5.34765481 25.05292347 -6.74023438 25.04882812 C-10.1601987 25.03699434 -13.58007844 25.0205088 -17 25 C-16.84643547 26.43634649 -16.69115581 27.87250968 -16.53515625 29.30859375 C-16.44886963 30.10837646 -16.36258301 30.90815918 -16.27368164 31.73217773 C-15.9773272 34.18787481 -15.54478624 36.58737522 -15 39 C-18.00148136 38.67841271 -18.98205792 38.01846979 -21.125 35.8125 C-24.80914838 30.28627744 -25 26.78640151 -25 20 C-14.77 20 -4.54 20 6 20 C3.92551409 7.95979239 3.92551409 7.95979239 0 2 C0 1.34 0 0.68 0 0 Z " fill="#C9E9FD" transform="translate(296,252)"/>
<path d="M0 0 C2.9375 0.25 2.9375 0.25 6 1 C6.66 1.99 7.32 2.98 8 4 C7.54625 5.216875 7.0925 6.43375 6.625 7.6875 C4.97167529 12.16249887 4.68640994 16.39686696 4.6875 21.125 C4.68250488 21.79362061 4.67750977 22.46224121 4.67236328 23.15112305 C4.73449917 27.73618676 5.68994146 31.63135582 7 36 C6.625 38.9375 6.625 38.9375 6 41 C3.525 41.495 3.525 41.495 1 42 C-4.5386145 35.97976685 -3.1828364 26.59978991 -3.1875 18.9375 C-3.19974609 17.87466797 -3.21199219 16.81183594 -3.22460938 15.71679688 C-3.2344827 10.44773288 -3.21953972 5.89288868 -1 1 C-0.67 0.67 -0.34 0.34 0 0 Z " fill="#CEEFFD" transform="translate(333,251)"/>
<path d="M0 0 C2.375 -0.125 2.375 -0.125 5 0 C7 2 7 2 7 4.1875 C4.57543312 11.00659436 -0.56683586 14.72403642 -6.75390625 18.0546875 C-11.09676882 19.88246618 -15.32228845 20.17840237 -20 20.25 C-21.010625 20.27578125 -22.02125 20.3015625 -23.0625 20.328125 C-26.43942842 19.95091491 -28.28014341 19.00103735 -31 17 C-31.33 16.34 -31.66 15.68 -32 15 C-30.9378125 14.90203125 -29.875625 14.8040625 -28.78125 14.703125 C-18.12622308 13.6162115 -9.89979571 11.89979571 -2 4 C-1.30251417 2.68252676 -0.63040043 1.35085807 0 0 Z " fill="#D4F2FC" transform="translate(302,287)"/>
<path d="M0 0 C1.9140625 0.1796875 1.9140625 0.1796875 4 1 C5.2734375 2.7578125 5.2734375 2.7578125 6.375 5.125 C6.79394531 6.02089844 7.21289062 6.91679687 7.64453125 7.83984375 C9.7051598 12.64401809 11.610716 17.50234917 13.47265625 22.38671875 C14.58675319 25.02237008 15.69609111 27.31381538 17.125 29.76171875 C19.04384757 33.07572841 19.91703819 35.18375673 20 39 C18.5625 41.875 18.5625 41.875 17 44 C14.02209803 40.49390574 12.39366601 36.56316475 10.6796875 32.34765625 C10.22349533 31.2419352 10.22349533 31.2419352 9.75808716 30.11387634 C9.11831213 28.55924543 8.48139583 27.00343537 7.84716797 25.4465332 C6.87851441 23.07111833 5.89895371 20.70042298 4.91796875 18.33007812 C4.29621825 16.81537358 3.67510312 15.30040805 3.0546875 13.78515625 C2.76302704 13.0798024 2.47136658 12.37444855 2.17086792 11.64772034 C0.74831596 8.13820634 -0.55146217 4.77615559 -1 1 C-0.67 0.67 -0.34 0.34 0 0 Z " fill="#D5F0FC" transform="translate(175,223)"/>
<path d="M0 0 C1.3125 2.0625 1.3125 2.0625 2 4 C-1.88986354 6.59324236 -5.07730173 6.2256096 -9.578125 6.1171875 C-10.84532379 6.09387863 -10.84532379 6.09387863 -12.13812256 6.07009888 C-13.92699994 6.03328518 -15.7157699 5.9908933 -17.50439453 5.94335938 C-20.22564277 5.87560644 -22.9461225 5.83922244 -25.66796875 5.8046875 C-27.4088992 5.76494691 -29.14978824 5.7233396 -30.890625 5.6796875 C-31.69816223 5.67218475 -32.50569946 5.66468201 -33.33770752 5.6569519 C-38.96338567 5.46587088 -42.31408639 4.12992797 -47 1 C-47 0.67 -47 0.34 -47 0 C-41.11028282 -0.16792948 -35.22042742 -0.32845577 -29.33032227 -0.48217773 C-27.3273376 -0.53548911 -25.32440534 -0.59080963 -23.3215332 -0.64819336 C-20.43973082 -0.73040801 -17.55781614 -0.80535382 -14.67578125 -0.87890625 C-13.78288895 -0.90594131 -12.88999664 -0.93297638 -11.970047 -0.96083069 C-3.60621602 -1.16081062 -3.60621602 -1.16081062 0 0 Z " fill="#CFEEFB" transform="translate(252,300)"/>
<path d="M0 0 C1.32 0 2.64 0 4 0 C3.7386395 3.74616718 3.30149098 5.63643735 0.875 8.5625 C-8.15321446 16.21685573 -16.83500704 19.60824965 -29 19 C-29.99 18.01 -30.98 17.02 -32 16 C-28.37 16 -24.74 16 -21 16 C-18.75240622 11.27854301 -18.75240622 11.27854301 -19 7 C-17.824375 7.226875 -16.64875 7.45375 -15.4375 7.6875 C-10.88745788 8.24316886 -8.01444907 7.31602831 -4 5 C-2.65263027 3.34466005 -1.31665664 1.67987227 0 0 Z " fill="#5875EC" transform="translate(298,284)"/>
<path d="M0 0 C5.75 0.875 5.75 0.875 8 2 C7.67 3.98 7.34 5.96 7 8 C-4.55604702 10.98220568 -16.76429611 11.53589527 -28 7 C-28.66 6.34 -29.32 5.68 -30 5 C-29.33991943 4.97494385 -28.67983887 4.9498877 -27.99975586 4.92407227 C-24.97884631 4.80728248 -21.95818578 4.68493554 -18.9375 4.5625 C-17.37999023 4.50352539 -17.37999023 4.50352539 -15.79101562 4.44335938 C-10.45969359 4.22333656 -5.26310107 3.8883816 0 3 C0 2.01 0 1.02 0 0 Z " fill="#CDEBFB" transform="translate(455,314)"/>
<path d="M0 0 C2.5625 0.1875 2.5625 0.1875 4.5625 2.1875 C4.50390625 4.71875 4.50390625 4.71875 4.125 7.6875 C3.47627236 11.57677567 3.47627236 11.57677567 4.5625 15.1875 C5.2225 14.8575 5.8825 14.5275 6.5625 14.1875 C6.5625 15.8375 6.5625 17.4875 6.5625 19.1875 C2.2725 19.1875 -2.0175 19.1875 -6.4375 19.1875 C-6.69560131 12.2187645 -6.78080878 7.33918816 -3.4375 1.1875 C-2.4375 0.1875 -2.4375 0.1875 0 0 Z " fill="#D5F3FC" transform="translate(277.4375,248.8125)"/>
<path d="M0 0 C0.33 0 0.66 0 1 0 C1.09265029 7.7711216 1.16373925 15.54211403 1.20724869 23.31364918 C1.22813051 26.92226979 1.25645764 30.53051277 1.30175781 34.13891602 C1.34519643 37.62079774 1.36913263 41.1023161 1.37950897 44.58444786 C1.39050504 46.56047435 1.42173453 48.53635448 1.45318604 50.51216125 C1.45348816 51.71317978 1.45379028 52.9141983 1.45410156 54.15161133 C1.46298401 55.21084305 1.47186646 56.27007477 1.48101807 57.36140442 C1 60 1 60 -0.90338135 61.79130554 C-1.5952655 62.19017471 -2.28714966 62.58904388 -3 63 C-3.99 63.5878125 -3.99 63.5878125 -5 64.1875 C-7 65 -7 65 -11 65 C-11 64.01 -11 63.02 -11 62 C-10.36191406 61.80664062 -9.72382813 61.61328125 -9.06640625 61.4140625 C-7.82697266 61.02347656 -7.82697266 61.02347656 -6.5625 60.625 C-5.73878906 60.36976563 -4.91507813 60.11453125 -4.06640625 59.8515625 C-1.82201984 59.19117773 -1.82201984 59.19117773 -1 57 C-0.91316555 54.22839374 -0.8844421 51.48225235 -0.90234375 48.7109375 C-0.9037587 47.89251373 -0.90517365 47.07408997 -0.90663147 46.23086548 C-0.9122371 43.61220675 -0.92479052 40.99363296 -0.9375 38.375 C-0.94251428 36.60156373 -0.94707731 34.82812613 -0.95117188 33.0546875 C-0.96220836 28.70309218 -0.97947675 24.3515605 -1 20 C-1.66 20.99 -2.32 21.98 -3 23 C-3.33 21.35 -3.66 19.7 -4 18 C-4.99 18.33 -5.98 18.66 -7 19 C-5.58632741 14.65328707 -4.02739359 10.3864361 -2.375 6.125 C-1.92898437 4.97257813 -1.48296875 3.82015625 -1.0234375 2.6328125 C-0.68570313 1.76398438 -0.34796875 0.89515625 0 0 Z " fill="#5F82EA" transform="translate(213,235)"/>
<path d="M0 0 C0.66 0.33 1.32 0.66 2 1 C1.99777939 1.78260696 1.99555878 2.56521393 1.99327087 3.37153625 C1.97324184 10.74338968 1.95801251 18.11522993 1.94818783 25.48710346 C1.9429671 29.27714002 1.9358841 33.06715411 1.92456055 36.85717773 C1.91370296 40.51408802 1.90771705 44.17097668 1.90512276 47.82790184 C1.9032737 49.22376025 1.89966301 50.61961747 1.89426994 52.01546669 C1.88702156 53.96903964 1.88659162 55.92263431 1.88647461 57.8762207 C1.884254 58.9887471 1.88203339 60.1012735 1.87974548 61.24751282 C1.87779719 64.0909224 1.87779719 64.0909224 3 67 C1.68 67 0.36 67 -1 67 C-1.02314265 58.55959739 -1.04092492 50.11920798 -1.05181217 41.67878151 C-1.05703678 37.7598013 -1.0641268 33.84084274 -1.07543945 29.921875 C-1.08628329 26.14177614 -1.09228002 22.36169814 -1.09487724 18.58158493 C-1.09672878 17.13745164 -1.10034424 15.69331953 -1.10573006 14.2491951 C-1.1129602 12.23075723 -1.11340823 10.21229847 -1.11352539 8.19384766 C-1.115746 7.04357086 -1.11796661 5.89329407 -1.12025452 4.7081604 C-1 2 -1 2 0 0 Z " fill="#E2F6FD" transform="translate(243,230)"/>
<path d="M0 0 C1.43872134 2.87744268 1.11937153 5.34565922 1.11352539 8.56103516 C1.11367142 9.23432358 1.11381744 9.907612 1.1139679 10.6013031 C1.11327027 12.83058881 1.10548489 15.05979135 1.09765625 17.2890625 C1.09579154 18.83320063 1.09436789 20.37733934 1.09336853 21.92147827 C1.08954754 25.98870472 1.07972082 30.05589555 1.06866455 34.12310791 C1.05844144 38.2721712 1.05386898 42.42124025 1.04882812 46.5703125 C1.03809819 54.71355803 1.02102677 62.85677458 1 71 C4.3 71.33 7.6 71.66 11 72 C11 72.99 11 73.98 11 75 C-1.21 75 -13.42 75 -26 75 C-26 74.67 -26 74.34 -26 74 C-17.09 73.67 -8.18 73.34 1 73 C0.34 72.34 -0.32 71.68 -1 71 C-1.24723816 68.10874939 -1.24723816 68.10874939 -1.24291992 64.36303711 C-1.24481827 63.68160141 -1.24671661 63.00016571 -1.24867249 62.29808044 C-1.25238345 60.04105195 -1.24167269 57.78434375 -1.23046875 55.52734375 C-1.22927713 53.96318093 -1.22882375 52.39901738 -1.2290802 50.83485413 C-1.22751484 47.55546597 -1.21922051 44.27618689 -1.20581055 40.99682617 C-1.18880659 36.78422328 -1.18499657 32.57174021 -1.18575573 28.35910702 C-1.18548439 25.12930651 -1.18000929 21.89953242 -1.17275429 18.66974068 C-1.16956282 17.11593386 -1.1675991 15.56212405 -1.16686058 14.00831413 C-1.16470285 11.84134649 -1.15597147 9.67450838 -1.14526367 7.50756836 C-1.13954597 5.65463417 -1.13954597 5.65463417 -1.13371277 3.76426697 C-1 1 -1 1 0 0 Z " fill="#5C79E3" transform="translate(236,225)"/>
<path d="M0 0 C3.55659454 0.03783611 5.96731012 0.7923568 9.25 2.1875 C11.91372269 2.64228192 14.55883034 2.91382173 17.25 3.1875 C17.25 3.5175 17.25 3.8475 17.25 4.1875 C12.3 4.1875 7.35 4.1875 2.25 4.1875 C2.97328909 11.2299873 2.97328909 11.2299873 4.25 18.1875 C1.12018088 17.85216224 0.24938841 17.18683599 -1.9375 14.8125 C-5.13186633 10.18617635 -4.92498332 6.61198304 -4.75 1.1875 C-3.75 0.1875 -3.75 0.1875 0 0 Z " fill="#D6F3FC" transform="translate(276.75,272.8125)"/>
<path d="M0 0 C0.66 0.99 1.32 1.98 2 3 C1.67 3.66 1.34 4.32 1 5 C-8.0719352 5.09471858 -16.98185679 5.14516104 -26 4 C-26.33 2.68 -26.66 1.36 -27 0 C-23.62554272 -0.19825948 -20.25043278 -0.38167324 -16.875 -0.5625 C-15.44800781 -0.64661133 -15.44800781 -0.64661133 -13.9921875 -0.73242188 C-4.2424955 -1.24021833 -4.2424955 -1.24021833 0 0 Z " fill="#C7E9FA" transform="translate(168,300)"/>
<path d="M0 0 C2.375 0.25 2.375 0.25 5 1 C6.95120186 3.96015843 7.24771712 6.34537462 7.23046875 9.84375 C7.22853516 10.76027344 7.22660156 11.67679688 7.22460938 12.62109375 C7.21236328 13.57113281 7.20011719 14.52117187 7.1875 15.5 C7.18685547 16.45003906 7.18621094 17.40007812 7.18554688 18.37890625 C7.14068169 25.46760489 7.14068169 25.46760489 6.49603271 27.9072113 C5.67901877 31.35423706 5.92097667 34.85716249 5.97265625 38.37890625 C5.98529691 40.03840942 5.99765828 41.69791473 6.00976562 43.35742188 C6.03463076 45.96678385 6.06267259 48.57603393 6.09594727 51.18530273 C6.12610304 53.70817795 6.14390463 56.23090862 6.16015625 58.75390625 C6.17361588 59.53520401 6.1870755 60.31650177 6.20094299 61.12147522 C6.21878253 64.96330239 6.18416754 66.7237487 4 70 C3.34 69.67 2.68 69.34 2 69 C2.66 68.01 3.32 67.02 4 66 C4.17162025 63.31405085 4.23224552 60.73455099 4.1953125 58.05078125 C4.1924826 57.27816452 4.18965271 56.50554779 4.18673706 55.70951843 C4.17554878 53.24368757 4.15044703 50.77822094 4.125 48.3125 C4.11496843 46.63997921 4.10584289 44.96745272 4.09765625 43.29492188 C4.07561392 39.19647441 4.04109363 35.09829894 4 31 C1.69 30.01 -0.62 29.02 -3 28 C-1.68 27.01 -0.36 26.02 1 25 C0.67 24.01 0.34 23.02 0 22 C2.475 22.99 2.475 22.99 5 24 C4.86145912 20.70798357 4.71292976 17.41649291 4.5625 14.125 C4.52318359 13.18785156 4.48386719 12.25070313 4.44335938 11.28515625 C4.38051758 9.94130859 4.38051758 9.94130859 4.31640625 8.5703125 C4.27974854 7.74289551 4.24309082 6.91547852 4.20532227 6.06298828 C4.11761673 3.93820571 4.11761673 3.93820571 3 2 C2.01 1.34 1.02 0.68 0 0 Z " fill="#657EE3" transform="translate(336,223)"/>
<path d="M0 0 C2 1 2 1 2.9375 2.75 C3 5 3 5 0.9375 7.5 C-5.89719674 13.31676318 -10.52561256 15.1552678 -19.38671875 15.09765625 C-20.20372757 15.0962413 -21.02073639 15.09482635 -21.86250305 15.09336853 C-24.47087268 15.08777294 -27.07915634 15.07522129 -29.6875 15.0625 C-31.45637897 15.05748443 -33.22525928 15.05292162 -34.99414062 15.04882812 C-39.32946019 15.03780496 -43.66471552 15.02054338 -48 15 C-48 14.67 -48 14.34 -48 14 C-43.74232144 12.97985051 -39.57103562 12.8025905 -35.21484375 12.71875 C-34.47673965 12.70034058 -33.73863556 12.68193115 -32.97816467 12.66296387 C-29.83673787 12.5847153 -26.69511146 12.51660306 -23.5534668 12.44775391 C-21.25299026 12.39587598 -18.95268684 12.33869847 -16.65234375 12.28125 C-15.94496567 12.26767456 -15.23758759 12.25409912 -14.5087738 12.2401123 C-11.21035639 12.15710117 -8.15829327 12.0012494 -5 11 C-5 10.34 -5 9.68 -5 9 C-4.34 8.67 -3.68 8.34 -3 8 C-2.65977214 6.00116131 -2.32670903 4.00109278 -2 2 C-1.34 1.34 -0.68 0.68 0 0 Z " fill="#79D4EF" transform="translate(168,196)"/>
<path d="M0 0 C1.3125 2.0625 1.3125 2.0625 2 4 C-1.63372533 6.42248355 -4.12080842 6.17281207 -8.29296875 5.9765625 C-8.99899734 5.95153656 -9.70502594 5.92651062 -10.43244934 5.90072632 C-12.68462949 5.81863741 -14.93591791 5.72200748 -17.1875 5.625 C-18.71545852 5.56674891 -20.24345349 5.50944586 -21.77148438 5.453125 C-25.51483461 5.3130757 -29.25745088 5.15998394 -33 5 C-33 4.67 -33 4.34 -33 4 C-24.585 3.505 -24.585 3.505 -16 3 C-16 2.34 -16 1.68 -16 1 C-15.05125 1.20625 -14.1025 1.4125 -13.125 1.625 C-12.09375 1.74875 -11.0625 1.8725 -10 2 C-9.34 1.34 -8.68 0.68 -8 0 C-4.66411172 -1.11196276 -3.29427581 -1.09809194 0 0 Z " fill="#E0F7FC" transform="translate(252,300)"/>
<path d="M0 0 C0.99 0.33 1.98 0.66 3 1 C3 1.99 3 2.98 3 4 C4.1446875 4.0928125 4.1446875 4.0928125 5.3125 4.1875 C8 5 8 5 9.75 7.1875 C11.12289198 10.27650695 11.85896293 12.61511029 12 16 C10.5625 18.875 10.5625 18.875 9 21 C6.02067065 17.51069535 4.45260749 13.60283265 2.8125 9.375 C2.53986328 8.694375 2.26722656 8.01375 1.98632812 7.3125 C0 2.27449483 0 2.27449483 0 0 Z " fill="#CCEFFD" transform="translate(183,246)"/>
<path d="M0 0 C2.85566912 1.71585269 5.19790398 3.71005464 7.375 6.25 C6.611875 5.940625 5.84875 5.63125 5.0625 5.3125 C3.18710323 4.57106407 1.28815348 3.88771783 -0.625 3.25 C-0.625 2.59 -0.625 1.93 -0.625 1.25 C-3.265 0.92 -5.905 0.59 -8.625 0.25 C-7.88830078 1.29220703 -7.88830078 1.29220703 -7.13671875 2.35546875 C-5.37671541 5.72539763 -5.31323419 7.79310384 -5.4375 11.5625 C-5.46457031 12.63113281 -5.49164063 13.69976562 -5.51953125 14.80078125 C-5.55433594 15.60902344 -5.58914063 16.41726563 -5.625 17.25 C-5.955 17.25 -6.285 17.25 -6.625 17.25 C-6.82416016 15.96802734 -6.82416016 15.96802734 -7.02734375 14.66015625 C-7.20394531 13.55542969 -7.38054687 12.45070313 -7.5625 11.3125 C-7.73652344 10.21035156 -7.91054688 9.10820312 -8.08984375 7.97265625 C-8.34345136 5.34573071 -8.34345136 5.34573071 -9.625 4.25 C-11.62458364 4.20919217 -13.62545254 4.20745644 -15.625 4.25 C-15.625 2.6 -15.625 0.95 -15.625 -0.75 C-16.2025 -0.399375 -16.78 -0.04875 -17.375 0.3125 C-19.98301776 1.39917407 -21.01917629 1.18065133 -23.625 0.25 C-16.56551852 -3.07367301 -7.11297164 -3.40243841 0 0 Z " fill="#5F79E3" transform="translate(289.625,245.75)"/>
<path d="M0 0 C2 1 2 1 3.125 4.1875 C4 8 4 8 4 14 C-6.23 14 -16.46 14 -27 14 C-25.3590909 22.20454552 -24.36578745 26.45131883 -20 33 C-20.99 33 -21.98 33 -23 33 C-27.34546113 25.7108394 -28 22.14663115 -28 13 C-18.1 13 -8.2 13 2 13 C1.34 8.71 0.68 4.42 0 0 Z " fill="#5979E5" transform="translate(298,258)"/>
<path d="M0 0 C2.42326704 2.42326704 3.25541642 4.6481872 4.5625 7.8125 C4.99691406 8.85019531 5.43132812 9.88789063 5.87890625 10.95703125 C7.47220047 15.28168698 8.48391146 18.54826563 7 23 C6.34 23 5.68 23 5 23 C5 22.34 5 21.68 5 21 C4.01 20.67 3.02 20.34 2 20 C1.66254646 17.60468244 1.3299171 15.20885732 1 12.8125 C0.90460938 12.13896484 0.80921875 11.46542969 0.7109375 10.77148438 C0.21675387 7.15335423 -0.11346131 3.65203599 0 0 Z " fill="#CDEEFD" transform="translate(152,231)"/>
<path d="M0 0 C0.66 0 1.32 0 2 0 C3.1446875 1.175625 3.1446875 1.175625 4.3125 2.375 C6.99237854 4.99255578 8.4006836 6.14301991 12 7 C14.33564933 6.68330179 16.6693782 6.35179197 19 6 C19.66 6.66 20.32 7.32 21 8 C23.03467434 8.27686065 23.03467434 8.27686065 25.3515625 8.1953125 C26.20234375 8.18886719 27.053125 8.18242187 27.9296875 8.17578125 C28.81914062 8.15902344 29.70859375 8.14226562 30.625 8.125 C31.5221875 8.11597656 32.419375 8.10695313 33.34375 8.09765625 C35.56276586 8.0740497 37.78125077 8.0411231 40 8 C35.31044696 11.12636869 30.45655483 10.44927922 24.9375 10.5 C23.84244141 10.54125 22.74738281 10.5825 21.61914062 10.625 C13.80263401 10.69948726 7.98998961 9.23678463 2 4 C0.73022461 1.79882812 0.73022461 1.79882812 0 0 Z " fill="#5F7BE6" transform="translate(411,309)"/>
<path d="M0 0 C0.33 0 0.66 0 1 0 C1.09880115 5.78404741 1.1714363 11.56760484 1.21972656 17.35229492 C1.23985481 19.3204809 1.26716019 21.28860699 1.30175781 23.2565918 C1.35022311 26.0839718 1.37295618 28.91056201 1.390625 31.73828125 C1.41127014 32.61962234 1.43191528 33.50096344 1.45318604 34.40901184 C1.45543563 40.51933393 1.45543563 40.51933393 -0.89941406 43.00463867 C-1.59260742 43.33310791 -2.28580078 43.66157715 -3 44 C-3.99 44.5878125 -3.99 44.5878125 -5 45.1875 C-7 46 -7 46 -11 46 C-11 45.01 -11 44.02 -11 43 C-10.36191406 42.80664062 -9.72382813 42.61328125 -9.06640625 42.4140625 C-7.82697266 42.02347656 -7.82697266 42.02347656 -6.5625 41.625 C-5.73878906 41.36976563 -4.91507813 41.11453125 -4.06640625 40.8515625 C-1.82201984 40.19117773 -1.82201984 40.19117773 -1 38 C-0.84293669 35.15791974 -0.7415043 32.33662693 -0.68359375 29.4921875 C-0.66281265 28.65156769 -0.64203156 27.81094788 -0.62062073 26.94485474 C-0.55514561 24.25498765 -0.4962498 21.56502157 -0.4375 18.875 C-0.39431284 17.05337511 -0.35069848 15.23176029 -0.30664062 13.41015625 C-0.19946632 8.94020606 -0.09819315 4.47015614 0 0 Z " fill="#7084D4" transform="translate(213,254)"/>
<path d="M0 0 C1.92578125 0.68359375 1.92578125 0.68359375 4 2 C4.79296875 4.34765625 4.79296875 4.34765625 5.1875 7.0625 C5.45274003 10.3327893 5.45274003 10.3327893 7 13 C7.10013609 15.08660944 7.13081208 17.17661514 7.1328125 19.265625 C7.13474609 21.18955078 7.13474609 21.18955078 7.13671875 23.15234375 C7.13462402 23.82507324 7.1325293 24.49780273 7.13037109 25.19091797 C7.12505839 27.22761618 7.13029697 29.26409027 7.13671875 31.30078125 C7.13542969 32.58855469 7.13414062 33.87632812 7.1328125 35.203125 C7.13168457 36.38551758 7.13055664 37.56791016 7.12939453 38.78613281 C7.01405322 41.6509499 6.65945609 44.21679406 6 47 C5.67 47 5.34 47 5 47 C5.01571045 46.25540527 5.0314209 45.51081055 5.04760742 44.74365234 C5.33807932 28.89148556 5.13051103 15.10154767 0 0 Z " fill="#5971DF" transform="translate(426,230)"/>
<path d="M0 0 C0.61875 0.804375 1.2375 1.60875 1.875 2.4375 C4.02540985 5.03064129 4.75394458 5.65220835 8 6 C8 6.66 8 7.32 8 8 C2.72 8 -2.56 8 -8 8 C-4 0 -4 0 0 0 Z " fill="#5171FB" transform="translate(150,291)"/>
<path d="M0 0 C0.33 0.66 0.66 1.32 1 2 C0.67 2.66 0.34 3.32 0 4 C-2.75026417 4.05404449 -5.49946203 4.09369306 -8.25 4.125 C-9.02730469 4.14175781 -9.80460938 4.15851563 -10.60546875 4.17578125 C-17.72431144 4.23662606 -17.72431144 4.23662606 -21 2 C-20.18015625 1.86722656 -19.3603125 1.73445313 -18.515625 1.59765625 C-17.43796875 1.42105469 -16.3603125 1.24445313 -15.25 1.0625 C-14.18265625 0.88847656 -13.1153125 0.71445312 -12.015625 0.53515625 C-9.11638859 0.06318211 -9.11638859 0.06318211 -6.77734375 -0.5859375 C-4.28161509 -1.16736 -2.43091106 -0.72270329 0 0 Z " fill="#DCF4FB" transform="translate(169,301)"/>
<path d="M0 0 C0 2.97 0 5.94 0 9 C-0.66 9 -1.32 9 -2 9 C-2 8.01 -2 7.02 -2 6 C-3.32 6 -4.64 6 -6 6 C-5.896875 6.70125 -5.79375 7.4025 -5.6875 8.125 C-6.14210034 12.30732311 -8.16466151 13.95201113 -11 17 C-11.66 16.67 -12.32 16.34 -13 16 C-8.00404391 3.80242634 -8.00404391 3.80242634 -2.8125 0.6875 C-1 0 -1 0 0 0 Z " fill="#9EC8F9" transform="translate(210,252)"/>
<path d="M0 0 C0.97591583 3.38317487 0.85856655 5.5657338 0 9 C0.66 9 1.32 9 2 9 C2 7.68 2 6.36 2 5 C2.99 4.67 3.98 4.34 5 4 C4.33501617 8.38889325 2.81242323 11.9811485 1 16 C0.67 16 0.34 16 0 16 C0 14.35 0 12.7 0 11 C-0.598125 11.598125 -1.19625 12.19625 -1.8125 12.8125 C-3.54166667 14.54166667 -5.27083333 16.27083333 -7 18 C-5.06375702 11.79522136 -2.74390859 5.89174281 0 0 Z " fill="#5772E0" transform="translate(205,235)"/>
<path d="M0 0 C2.20914 3.31371 2.22481553 4.3446021 2.125 8.1875 C2.10695313 9.08855469 2.08890625 9.98960937 2.0703125 10.91796875 C2.03550781 11.94857422 2.03550781 11.94857422 2 13 C3.98 13 5.96 13 8 13 C8.33 12.01 8.66 11.02 9 10 C9.99 10 10.98 10 12 10 C12 11.65 12 13.3 12 15 C7.71 15 3.42 15 -1 15 C-1.13392857 3.75 -1.13392857 3.75 0 0 Z " fill="#AAC9FD" transform="translate(272,253)"/>
<path d="M0 0 C2.31 0.33 4.62 0.66 7 1 C5.68 1.99 4.36 2.98 3 4 C3.185625 4.969375 3.37125 5.93875 3.5625 6.9375 C3.706875 7.948125 3.85125 8.95875 4 10 C2.12961309 11.87038691 -0.85652851 11.51649933 -3.375 11.75 C-4.53773438 11.86859375 -5.70046875 11.9871875 -6.8984375 12.109375 C-10 12 -10 12 -13 9 C-9.37 9 -5.74 9 -2 9 C0.24759378 4.27854301 0.24759378 4.27854301 0 0 Z " fill="#637FF1" transform="translate(279,291)"/>
<path d="M0 0 C0.33 0 0.66 0 1 0 C1.144375 1.0725 1.28875 2.145 1.4375 3.25 C1.87643559 6.75877181 1.87643559 6.75877181 2.625 9.125 C3 11 3 11 2.52734375 13.25390625 C1.96595956 16.17726244 1.90167812 18.83928357 1.9375 21.8125 C1.94652344 22.78832031 1.95554687 23.76414062 1.96484375 24.76953125 C1.97644531 25.50558594 1.98804688 26.24164063 2 27 C-1.22879231 22.15681154 -1.13734747 17.72922817 -1.125 12 C-1.12757813 10.80375 -1.13015625 9.6075 -1.1328125 8.375 C-1.01757938 5.44672307 -0.67823563 2.84213024 0 0 Z " fill="#5F78E5" transform="translate(373,248)"/>
<path d="M0 0 C0.33 0.99 0.66 1.98 1 3 C0.01 3.495 0.01 3.495 -1 4 C-1.33 4.99 -1.66 5.98 -2 7 C-3.43534841 7.2226746 -4.87345525 7.42761906 -6.3125 7.625 C-7.11300781 7.74101562 -7.91351563 7.85703125 -8.73828125 7.9765625 C-11 8 -11 8 -14 6 C-14 5.34 -14 4.68 -14 4 C-13.24074219 3.87882812 -12.48148437 3.75765625 -11.69921875 3.6328125 C-10.20841797 3.38144531 -10.20841797 3.38144531 -8.6875 3.125 C-7.70136719 2.96257812 -6.71523438 2.80015625 -5.69921875 2.6328125 C-2.79940173 2.11914546 -2.79940173 2.11914546 0 0 Z " fill="#C5E5FB" transform="translate(339,297)"/>
<path d="M0 0 C4.09350729 2.25848678 4.96700336 5.01166962 6.2890625 9.2578125 C6.86030532 11.20480334 6.86030532 11.20480334 9 12 C9 12.99 9 13.98 9 15 C5.49366243 14.02601734 4.08928855 13.10913045 1.75 10.25 C0.00836744 7.01553953 -0.74561367 4.64620413 -1 1 C-0.67 0.67 -0.34 0.34 0 0 Z " fill="#C7E6FD" transform="translate(403,280)"/>
<path d="M0 0 C1.32 0.66 2.64 1.32 4 2 C2.53515625 3.171875 1.0703125 4.34375 -0.39453125 5.515625 C-3.86718617 8.63633787 -3.86718617 8.63633787 -5.23510742 13.00683594 C-5.29546487 15.42826452 -5.26126462 17.82900732 -5.1875 20.25 C-5.17396484 21.09046875 -5.16042969 21.9309375 -5.14648438 22.796875 C-5.11123464 24.86485938 -5.0574302 26.93251271 -5 29 C-8.31680988 25.68319012 -7.4840309 21.07870836 -7.51733398 16.61328125 C-7.35516523 9.49294144 -5.0261727 5.0261727 0 0 Z " fill="#617BDD" transform="translate(24,168)"/>
<path d="M0 0 C0 0.33 0 0.66 0 1 C-0.89203125 1.06058594 -1.7840625 1.12117188 -2.703125 1.18359375 C-4.45882812 1.30927734 -4.45882812 1.30927734 -6.25 1.4375 C-7.99023438 1.55931641 -7.99023438 1.55931641 -9.765625 1.68359375 C-13.46991877 1.99236368 -13.46991877 1.99236368 -17 3 C-17.33 3.99 -17.66 4.98 -18 6 C-19.33333333 6.33333333 -20.66666667 6.66666667 -22 7 C-22.33 7.99 -22.66 8.98 -23 10 C-25.0625 11.1875 -25.0625 11.1875 -27 12 C-25.06726104 5.97680823 -21.35853517 3.94055153 -16 1 C-10.36887718 -1.31278259 -5.85758206 -0.98290493 0 0 Z " fill="#79D5F1" transform="translate(102,108)"/>
<path d="M0 0 C1.32 0 2.64 0 4 0 C3.62671065 5.35048061 2.0042343 7.50912907 -2 11 C-3.25 9.4375 -3.25 9.4375 -4 7 C-2.93237266 4.42998985 -1.53455057 2.3469597 0 0 Z " fill="#627BF6" transform="translate(298,284)"/>
<path d="M0 0 C1 3 1 3 -0.07421875 5.3046875 C-6.07656613 14.86774942 -6.07656613 14.86774942 -9 18 C-9.66 18 -10.32 18 -11 18 C-10.45156876 14.16098132 -8.7234735 12.63836495 -6 10 C-5.67 9.01 -5.34 8.02 -5 7 C-4.34 7.33 -3.68 7.66 -3 8 C-2.87625 7.236875 -2.7525 6.47375 -2.625 5.6875 C-2 3 -2 3 0 0 Z " fill="#E0F4FB" transform="translate(463,278)"/>
<path d="M0 0 C0.78375 0.04125 1.5675 0.0825 2.375 0.125 C3.5 3.875 3.5 3.875 2.375 6.125 C0.05343403 6.53229228 -2.2818787 6.86938677 -4.625 7.125 C-4.75 4.75 -4.75 4.75 -4.625 2.125 C-2.625 0.125 -2.625 0.125 0 0 Z " fill="#5172F9" transform="translate(285.625,292.875)"/>
<path d="M0 0 C3.394263 1.19257889 5.70946714 2.20045984 8 5 C8.73046875 7.26171875 8.73046875 7.26171875 9.1875 9.6875 C9.34605469 10.49574219 9.50460937 11.30398437 9.66796875 12.13671875 C9.77753906 12.75160156 9.88710938 13.36648437 10 14 C9.34 14 8.68 14 8 14 C7.67386719 13.38511719 7.34773438 12.77023438 7.01171875 12.13671875 C6.57472656 11.32847656 6.13773437 10.52023438 5.6875 9.6875 C5.25824219 8.88699219 4.82898438 8.08648437 4.38671875 7.26171875 C3.10716154 4.97749619 3.10716154 4.97749619 1.33203125 3.33203125 C0.89246094 2.89246094 0.45289063 2.45289063 0 2 C0 1.34 0 0.68 0 0 Z " fill="#C1DDF9" transform="translate(448,230)"/>
<path d="M0 0 C-0.33 0.99 -0.66 1.98 -1 3 C-1.66 3 -2.32 3 -3 3 C-3.33 3.66 -3.66 4.32 -4 5 C-4 4.34 -4 3.68 -4 3 C-7.3 3.66 -10.6 4.32 -14 5 C-14 5.66 -14 6.32 -14 7 C-15.32 6.67 -16.64 6.34 -18 6 C-16.3970947 5.18501438 -14.79262722 4.37310073 -13.1875 3.5625 C-12.29417969 3.11003906 -11.40085937 2.65757812 -10.48046875 2.19140625 C-6.79003747 0.41883689 -4.05614073 -0.10962543 0 0 Z " fill="#5B73E6" transform="translate(407,220)"/>
<path d="M0 0 C0.33 0 0.66 0 1 0 C1.0515625 0.61488281 1.103125 1.22976563 1.15625 1.86328125 C1.5210806 4.46269931 1.93388388 6.59484204 3 9 C5.6620448 10.76020921 7.83938556 11.23533522 11 12 C9.25 15.875 9.25 15.875 7 17 C7 15.68 7 14.36 7 13 C6.21625 12.9175 5.4325 12.835 4.625 12.75 C2 12 2 12 0.6875 10.4375 C-0.31210998 6.89342826 -0.12259376 3.67781281 0 0 Z " fill="#5D7CEA" transform="translate(330,282)"/>
<path d="M0 0 C2.475 0.99 2.475 0.99 5 2 C5 2.99 5 3.98 5 5 C1.7 5.66 -1.6 6.32 -5 7 C-4.0409375 6.1028125 -4.0409375 6.1028125 -3.0625 5.1875 C-0.79689611 3.09189663 -0.79689611 3.09189663 0 0 Z " fill="#DBF4FC" transform="translate(369,296)"/>
<path d="M0 0 C0.33 0 0.66 0 1 0 C1.12117188 0.845625 1.24234375 1.69125 1.3671875 2.5625 C2.29083695 8.81489625 3.32664417 14.90420377 5 21 C1.82567632 18.40282608 0.90611106 15.9729485 0 12 C-0.15860869 7.99385144 -0.11670457 4.00685696 0 0 Z " fill="#E3F3FB" transform="translate(406,271)"/>
<path d="M0 0 C4.87685861 1.35468295 6.48592381 3.71675909 9 8 C7.35 8.66 5.7 9.32 4 10 C3.32845067 8.71086513 2.66291141 7.41859796 2 6.125 C1.62875 5.40570313 1.2575 4.68640625 0.875 3.9453125 C0 2 0 2 0 0 Z " fill="#A6C4F5" transform="translate(296,252)"/>
<path d="M0 0 C1.6026782 -0.10824843 3.20745748 -0.18570645 4.8125 -0.25 C5.70582031 -0.29640625 6.59914063 -0.3428125 7.51953125 -0.390625 C10 0 10 0 11.82421875 1.890625 C13 4 13 4 13 6 C11.68 6 10.36 6 9 6 C9 4.68 9 3.36 9 2 C6.03 2 3.06 2 0 2 C0 1.34 0 0.68 0 0 Z " fill="#6B8BEA" transform="translate(411,223)"/>
<path d="M0 0 C0.66 0 1.32 0 2 0 C2.66 0.66 3.32 1.32 4 2 C4.66 2.33 5.32 2.66 6 3 C9 7.5 9 7.5 9 10 C5.91085915 9.66902062 4.9973069 8.99715301 2.8125 6.6875 C1.20592291 4.30533398 0.41425314 2.79620867 0 0 Z " fill="#C2E6FC" transform="translate(272,281)"/>
<path d="M0 0 C0.99 0.33 1.98 0.66 3 1 C2.67 2.98 2.34 4.96 2 7 C0.02 7.33 -1.96 7.66 -4 8 C-3.6875 5.125 -3.6875 5.125 -3 2 C-2.01 1.34 -1.02 0.68 0 0 Z " fill="#DCF5FC" transform="translate(460,315)"/>
<path d="M0 0 C2.475 0.495 2.475 0.495 5 1 C4.67 1.66 4.34 2.32 4 3 C-3.59 3.33 -11.18 3.66 -19 4 C-18.67 3.34 -18.34 2.68 -18 2 C-12.06 2 -6.12 2 0 2 C0 1.34 0 0.68 0 0 Z " fill="#5C79E5" transform="translate(158,297)"/>
<path d="M0 0 C0.75 1.75 0.75 1.75 1 4 C-1.25626369 6.84122094 -3.60101156 8.72537933 -7 10 C-8.32 10 -9.64 10 -11 10 C-11 9.01 -11 8.02 -11 7 C-10.37351563 6.82984375 -9.74703125 6.6596875 -9.1015625 6.484375 C-8.28429687 6.24203125 -7.46703125 5.9996875 -6.625 5.75 C-5.81289062 5.51796875 -5.00078125 5.2859375 -4.1640625 5.046875 C-1.54214546 3.7785108 -1.00617682 2.67576692 0 0 Z " fill="#5C78D9" transform="translate(213,290)"/>
<path d="M0 0 C0 3 0 3 -1.64453125 4.859375 C-2.35996094 5.48328125 -3.07539063 6.1071875 -3.8125 6.75 C-4.52019531 7.38421875 -5.22789062 8.0184375 -5.95703125 8.671875 C-6.63121094 9.11015625 -7.30539063 9.5484375 -8 10 C-8.99 9.67 -9.98 9.34 -11 9 C-11 8.01 -11 7.02 -11 6 C-9.9275 5.566875 -8.855 5.13375 -7.75 4.6875 C-4.83727354 3.44678487 -2.43963834 2.04929621 0 0 Z " fill="#4D6EE7" transform="translate(147,291)"/>
<path d="M0 0 C3.42436208 2.9836935 3.57781494 5.5248384 4 10 C3.01 10.33 2.02 10.66 1 11 C0.34 10.34 -0.32 9.68 -1 9 C-0.9765625 6.8359375 -0.9765625 6.8359375 -0.625 4.375 C-0.51414062 3.55773437 -0.40328125 2.74046875 -0.2890625 1.8984375 C-0.19367188 1.27195312 -0.09828125 0.64546875 0 0 Z " fill="#DEF1FB" transform="translate(336,281)"/>
<path d="M0 0 C0 4.24645065 -1.81750806 6.38524772 -4 10 C-4.66 10 -5.32 10 -6 10 C-6.12375 10.804375 -6.2475 11.60875 -6.375 12.4375 C-6.58125 13.283125 -6.7875 14.12875 -7 15 C-7.99 15.495 -7.99 15.495 -9 16 C-7.28087301 9.34969294 -4.84639278 4.87776102 0 0 Z " fill="#5E72DA" transform="translate(383,231)"/>
<path d="M0 0 C1.125 1.625 1.125 1.625 2 4 C1.25 7.1875 1.25 7.1875 0 10 C-0.99 10.495 -0.99 10.495 -2 11 C-3.4606285 8.35261084 -4 7.10551666 -4 4 C-3.01 3.67 -2.02 3.34 -1 3 C-0.67 2.01 -0.34 1.02 0 0 Z " fill="#B4D6FF" transform="translate(193,256)"/>
<path d="M0 0 C-1.32 0.33 -2.64 0.66 -4 1 C-3.67 2.32 -3.34 3.64 -3 5 C-1.35 5.33 0.3 5.66 2 6 C1.67 6.66 1.34 7.32 1 8 C-2.67420866 7.69381595 -3.78135513 7.24228216 -6.3125 4.4375 C-6.869375 3.633125 -7.42625 2.82875 -8 2 C-5.44123378 -0.55876622 -3.37797483 -1.68898741 0 0 Z " fill="#C0E3FD" transform="translate(436,299)"/>
<path d="M0 0 C0.66 0 1.32 0 2 0 C3.62950412 4.12168689 4.26264601 6.70700357 3 11 C-1.13333333 4.8 -1.13333333 4.8 -0.625 1.75 C-0.41875 1.1725 -0.2125 0.595 0 0 Z " fill="#C3E6FE" transform="translate(175,223)"/>
<path d="M0 0 C5.28 0 10.56 0 16 0 C12.94185713 2.03876191 11.55116328 2.41616481 8 2.8125 C7.13375 2.92207031 6.2675 3.03164063 5.375 3.14453125 C3 3 3 3 0 0 Z " fill="#5F7BE4" transform="translate(320,299)"/>
<path d="M0 0 C1.60080151 4.00200378 0.29279692 7.04556236 -1 11 C-1.99 10.67 -2.98 10.34 -4 10 C-3.5205537 5.78087253 -2.83374881 3.20336822 0 0 Z " fill="#5370FC" transform="translate(201,251)"/>
<path d="M0 0 C4.95 0 9.9 0 15 0 C15 0.33 15 0.66 15 1 C10.25502375 2.96742918 7.01023306 3.15620763 2 2 C1.34 1.34 0.68 0.68 0 0 Z " fill="#A0BEF8" transform="translate(425,319)"/>
<path d="M0 0 C3.375 4.5 3.375 4.5 3.1875 8.75 C3.16042969 9.54921875 3.13335937 10.3484375 3.10546875 11.171875 C3.07066406 11.77515625 3.03585937 12.3784375 3 13 C2.01 13.33 1.02 13.66 0 14 C0 9.38 0 4.76 0 0 Z " fill="#A6C8F9" transform="translate(306,263)"/>
<path d="M0 0 C1.32 0.33 2.64 0.66 4 1 C3.21718695 2.33855056 2.42348123 3.67073644 1.625 5 C1.18414062 5.7425 0.74328125 6.485 0.2890625 7.25 C-0.34902344 8.11625 -0.34902344 8.11625 -1 9 C-1.66 9 -2.32 9 -3 9 C-2.01 6.03 -1.02 3.06 0 0 Z " fill="#5A71E2" transform="translate(211,221)"/>
<path d="M0 0 C3.3 0 6.6 0 10 0 C10 0.66 10 1.32 10 2 C7.03 2.66 4.06 3.32 1 4 C0.67 2.68 0.34 1.36 0 0 Z " fill="#5773E7" transform="translate(236,221)"/>
<path d="M0 0 C0.99 0.33 1.98 0.66 3 1 C4.1875 3.5625 4.1875 3.5625 5 6 C2.69 5.67 0.38 5.34 -2 5 C-2 4.34 -2 3.68 -2 3 C-1.34 3 -0.68 3 0 3 C0 2.01 0 1.02 0 0 Z " fill="#78D9F4" transform="translate(166,169)"/>
<path d="M0 0 C0.99 0.99 1.98 1.98 3 3 C3.99 3 4.98 3 6 3 C5.38722388 5.96175123 4.74627478 7.38058783 3 10 C2.01 6.7 1.02 3.4 0 0 Z " fill="#5B70E4" transform="translate(168,269)"/>
<path d="M0 0 C1.65 0.33 3.3 0.66 5 1 C4.67 3.31 4.34 5.62 4 8 C3.67 8 3.34 8 3 8 C2.67 6.35 2.34 4.7 2 3 C1.01 3.33 0.02 3.66 -1 4 C-0.67 2.68 -0.34 1.36 0 0 Z " fill="#709DE7" transform="translate(207,250)"/>
<path d="M0 0 C2.48728231 2.91985315 3.71066493 5.14219907 4 9 C3.0625 11.3125 3.0625 11.3125 2 13 C-0.28571429 4.57142857 -0.28571429 4.57142857 0 0 Z " fill="#ADD6FC" transform="translate(156,241)"/>
<path d="M0 0 C2.5 -0.3125 2.5 -0.3125 5 0 C5.66 0.66 6.32 1.32 7 2 C6.625 4.125 6.625 4.125 6 6 C5.67 4.68 5.34 3.36 5 2 C2.69 2.33 0.38 2.66 -2 3 C-1.34 2.01 -0.68 1.02 0 0 Z " fill="#BEDFFD" transform="translate(275,249)"/>
<path d="M0 0 C2.00720923 0.28674418 4.0085944 0.61866701 6 1 C6.33 2.32 6.66 3.64 7 5 C4.125 4.6875 4.125 4.6875 1 4 C0.34 3.01 -0.32 2.02 -1 1 C-0.67 0.67 -0.34 0.34 0 0 Z " fill="#C0E1FD" transform="translate(154,292)"/>
<path d="M0 0 C0.66 0.33 1.32 0.66 2 1 C0.35 4.63 -1.3 8.26 -3 12 C-4.22400998 7.10396009 -3.17036065 5.42419671 -1 1 C-0.67 0.67 -0.34 0.34 0 0 Z " fill="#E1F6FC" transform="translate(202,275)"/>
<path d="M0 0 C0.8125 1.625 0.8125 1.625 1 4 C-0.46818136 6.24609835 -2.15852858 8.02378677 -4 10 C-4.66 9.67 -5.32 9.34 -6 9 C-5.67 8.01 -5.34 7.02 -5 6 C-4.34 5.67 -3.68 5.34 -3 5 C-1.9590934 3.35857037 -0.95495674 1.69287785 0 0 Z " fill="#B3CFFE" transform="translate(203,259)"/>
<path d="M0 0 C-0.33 1.32 -0.66 2.64 -1 4 C-0.01 4.33 0.98 4.66 2 5 C-1.24208567 4.64950425 -2.61527704 4.43778819 -4.8125 1.9375 C-5.4003125 0.9784375 -5.4003125 0.9784375 -6 0 C-3 -1 -3 -1 0 0 Z " fill="#5D78F1" transform="translate(29,203)"/>
<path d="M0 0 C3.99500618 1.3697164 6.80009492 3.25722422 10 6 C6.6875 5.8125 6.6875 5.8125 3 5 C1.0625 2.4375 1.0625 2.4375 0 0 Z " fill="#6A88E7" transform="translate(432,306)"/>
<path d="M0 0 C1.98 0 3.96 0 6 0 C6.33 1.32 6.66 2.64 7 4 C4.69 3.34 2.38 2.68 0 2 C0 1.34 0 0.68 0 0 Z " fill="#89A4F1" transform="translate(401,300)"/>
<path d="M0 0 C1.32 0 2.64 0 4 0 C4 1.32 4 2.64 4 4 C3.01 4.33 2.02 4.66 1 5 C0.01 4.34 -0.98 3.68 -2 3 C-1.34 2.01 -0.68 1.02 0 0 Z " fill="#677DE1" transform="translate(298,284)"/>
<path d="M0 0 C0.66 0 1.32 0 2 0 C1.44271087 3.34373475 0.64826111 6.03312999 -1 9 C-3 5.25 -3 5.25 -3 3 C-2.34 3 -1.68 3 -1 3 C-0.67 2.01 -0.34 1.02 0 0 Z " fill="#5977E9" transform="translate(455,273)"/>
<path d="M0 0 C2.66735273 2.48952921 4.55746343 4.63408134 6 8 C4.68 8.33 3.36 8.66 2 9 C2 7.35 2 5.7 2 4 C1.34 4 0.68 4 0 4 C0 2.68 0 1.36 0 0 Z " fill="#5679EB" transform="translate(403,287)"/>
<path d="M0 0 C0.33 0 0.66 0 1 0 C1.144375 1.051875 1.28875 2.10375 1.4375 3.1875 C1.9179186 6.85345837 1.9179186 6.85345837 2.6875 9.8125 C2.8421875 10.8953125 2.8421875 10.8953125 3 12 C2.34 12.66 1.68 13.32 1 14 C-0.20568053 9.32798795 -0.09382426 4.78503708 0 0 Z " fill="#5F7BF0" transform="translate(18,185)"/>
<path d="M0 0 C1.65 0 3.3 0 5 0 C5.33 0.66 5.66 1.32 6 2 C5.34 2 4.68 2 4 2 C4 2.99 4 3.98 4 5 C3.01 4.67 2.02 4.34 1 4 C1.33 3.34 1.66 2.68 2 2 C1.34 2 0.68 2 0 2 C0 1.34 0 0.68 0 0 Z " fill="#6378DE" transform="translate(451,312)"/>
<path d="M0 0 C0.66 0 1.32 0 2 0 C1.25 4.75 1.25 4.75 -1 7 C-3.125 6.625 -3.125 6.625 -5 6 C-4.01 5.67 -3.02 5.34 -2 5 C-0.78130071 2.49552484 -0.78130071 2.49552484 0 0 Z " fill="#B7C3FD" transform="translate(301,288)"/>
<path d="M0 0 C2.375 -0.125 2.375 -0.125 5 0 C5.66 0.66 6.32 1.32 7 2 C6.67 2.99 6.34 3.98 6 5 C5.01 4.34 4.02 3.68 3 3 C2.01 3.495 2.01 3.495 1 4 C0.67 2.68 0.34 1.36 0 0 Z " fill="#D2EBF5" transform="translate(302,287)"/>
<path d="M0 0 C3.465 1.98 3.465 1.98 7 4 C5.02 4.99 5.02 4.99 3 6 C1.68 4.35 0.36 2.7 -1 1 C-0.67 0.67 -0.34 0.34 0 0 Z " fill="#5C74F6" transform="translate(159,247)"/>
<path d="M0 0 C3.26460973 1.80412643 4.88929795 2.83394693 7 6 C6.01 6.495 6.01 6.495 5 7 C5 6.34 5 5.68 5 5 C3.68 4.67 2.36 4.34 1 4 C0.67 2.68 0.34 1.36 0 0 Z " fill="#2139EA" transform="translate(106,169)"/>
</svg>
